<svg width="96" height="74" viewBox="0 0 96 74" fill="none" xmlns="http://www.w3.org/2000/svg">
<path d="M43.6918 12.1823L43.6983 12.1754C43.6825 12.149 43.6667 12.1225 43.6509 12.0961C43.5118 11.8085 43.3455 11.5419 43.1514 11.2977C38.9577 4.88873 31.716 0.654297 23.4849 0.654297C10.5146 0.654297 0 11.1688 0 24.1393C0 32.4827 4.42748 39.7701 10.9842 43.936C15.1353 46.7167 24.8429 42.457 33.3571 33.9428C41.4766 25.8233 45.727 16.6182 43.6918 12.1823Z" fill="#F6BF3F"/>
<path d="M43.6918 12.1823L43.6983 12.1754C43.6825 12.149 43.6667 12.1225 43.6509 12.0961C43.5118 11.8085 43.3455 11.5419 43.1514 11.2977C38.9577 4.88873 31.716 0.654297 23.4849 0.654297C10.5146 0.654297 0 11.1688 0 24.1393C0 32.4827 4.42748 39.7701 10.9842 43.936C15.1353 46.7167 24.8429 42.457 33.3571 33.9428C41.4766 25.8233 45.727 16.6182 43.6918 12.1823Z" fill="url(#paint0_radial_3158_165406)"/>
<path d="M43.6918 12.1823L43.6983 12.1754C43.6825 12.149 43.6667 12.1225 43.6509 12.0961C43.5118 11.8085 43.3455 11.5419 43.1514 11.2977C38.9577 4.88873 31.716 0.654297 23.4849 0.654297C10.5146 0.654297 0 11.1688 0 24.1393C0 32.4827 4.42748 39.7701 10.9842 43.936C15.1353 46.7167 24.8429 42.457 33.3571 33.9428C41.4766 25.8233 45.727 16.6182 43.6918 12.1823Z" fill="url(#paint1_radial_3158_165406)"/>
<path d="M43.6918 12.1823L43.6983 12.1754C43.6825 12.149 43.6667 12.1225 43.6509 12.0961C43.5118 11.8085 43.3455 11.5419 43.1514 11.2977C38.9577 4.88873 31.716 0.654297 23.4849 0.654297C10.5146 0.654297 0 11.1688 0 24.1393C0 32.4827 4.42748 39.7701 10.9842 43.936C15.1353 46.7167 24.8429 42.457 33.3571 33.9428C41.4766 25.8233 45.727 16.6182 43.6918 12.1823Z" fill="url(#paint2_radial_3158_165406)"/>
<path d="M52.3082 12.1823L52.3016 12.1754C52.3171 12.149 52.3329 12.1225 52.349 12.0961C52.4882 11.8085 52.6545 11.5419 52.8486 11.2977C57.0423 4.88873 64.284 0.654297 72.5151 0.654297C85.4852 0.654297 95.9999 11.1688 95.9999 24.1392C95.9999 32.4827 91.7134 40.1374 85.1568 44.3033C81.0056 47.0836 71.1251 42.457 62.6113 33.9428C54.4914 25.8233 50.273 16.6182 52.3082 12.1823Z" fill="#F7CC36"/>
<path d="M52.3082 12.1823L52.3016 12.1754C52.3171 12.149 52.3329 12.1225 52.349 12.0961C52.4882 11.8085 52.6545 11.5419 52.8486 11.2977C57.0423 4.88873 64.284 0.654297 72.5151 0.654297C85.4852 0.654297 95.9999 11.1688 95.9999 24.1392C95.9999 32.4827 91.7134 40.1374 85.1568 44.3033C81.0056 47.0836 71.1251 42.457 62.6113 33.9428C54.4914 25.8233 50.273 16.6182 52.3082 12.1823Z" fill="url(#paint3_radial_3158_165406)"/>
<path d="M52.3082 12.1823L52.3016 12.1754C52.3171 12.149 52.3329 12.1225 52.349 12.0961C52.4882 11.8085 52.6545 11.5419 52.8486 11.2977C57.0423 4.88873 64.284 0.654297 72.5151 0.654297C85.4852 0.654297 95.9999 11.1688 95.9999 24.1392C95.9999 32.4827 91.7134 40.1374 85.1568 44.3033C81.0056 47.0836 71.1251 42.457 62.6113 33.9428C54.4914 25.8233 50.273 16.6182 52.3082 12.1823Z" fill="url(#paint4_radial_3158_165406)"/>
<path d="M85.259 43.123C81.8792 46.5027 72.1698 42.2728 63.5723 33.6753C54.9748 25.0778 50.7449 15.3684 54.1246 11.9886C57.5043 8.60894 67.2138 12.8388 75.8113 21.4363C84.4088 30.0338 88.6387 39.7433 85.259 43.123Z" stroke="url(#paint5_linear_3158_165406)" stroke-width="1.21192"/>
<path d="M85.2599 43.121C81.8802 46.5007 72.1708 42.2709 63.5733 33.6734C54.9758 25.0759 50.7459 15.3664 54.1256 11.9867C57.5053 8.60698 67.2148 12.8368 75.8123 21.4343C84.4098 30.0318 88.6396 39.7413 85.2599 43.121Z" fill="url(#paint6_linear_3158_165406)"/>
<path fill-rule="evenodd" clip-rule="evenodd" d="M30.8708 48.2436C32.6373 47.5513 34.6306 48.4225 35.3225 50.1891C36.8091 53.9839 39.4688 63.5271 32.5992 72.0623C31.4095 73.5402 29.2468 73.7742 27.7688 72.5845C26.2907 71.3948 26.057 69.2321 27.2466 67.7541C31.7142 62.2037 30.1583 55.8436 28.9249 52.6956C28.233 50.9287 29.1039 48.9358 30.8708 48.2436Z" fill="#FC28A2"/>
<path fill-rule="evenodd" clip-rule="evenodd" d="M30.8708 48.2436C32.6373 47.5513 34.6306 48.4225 35.3225 50.1891C36.8091 53.9839 39.4688 63.5271 32.5992 72.0623C31.4095 73.5402 29.2468 73.7742 27.7688 72.5845C26.2907 71.3948 26.057 69.2321 27.2466 67.7541C31.7142 62.2037 30.1583 55.8436 28.9249 52.6956C28.233 50.9287 29.1039 48.9358 30.8708 48.2436Z" fill="url(#paint7_linear_3158_165406)"/>
<path fill-rule="evenodd" clip-rule="evenodd" d="M71.9931 19.6654C73.5624 20.3388 74.2887 22.1568 73.6154 23.7262C70.8793 30.1018 66.8271 34.8273 62.7375 37.4527C62.6877 37.6537 62.6351 37.8506 62.5808 38.0423C61.9872 40.1359 61.0356 42.0883 60.0983 43.2697C59.0375 44.6075 57.0926 44.8322 55.7545 43.771C54.5315 42.8008 54.2391 41.0923 55.0086 39.7841C54.7001 39.758 54.3937 39.7143 54.0893 39.6518C51.4718 39.1155 49.5362 37.281 48.7502 34.5944C48.0995 32.3716 48.3063 30.2062 49.4071 28.4325C50.4752 26.7123 52.175 25.6992 53.8876 25.3099C57.0002 24.6019 60.9445 25.8685 62.5029 29.6593C64.4614 27.6389 66.4039 24.8496 67.9323 21.2873C68.606 19.7183 70.4241 18.992 71.9931 19.6654ZM54.6613 31.6938C55.8239 30.3842 57.4211 32.0081 57.0342 33.3988C55.3944 34.5944 53.6767 32.934 54.6613 31.6938Z" fill="url(#paint8_linear_3158_165406)"/>
<path fill-rule="evenodd" clip-rule="evenodd" d="M71.9931 19.6654C73.5624 20.3388 74.2887 22.1568 73.6154 23.7262C70.8793 30.1018 66.8271 34.8273 62.7375 37.4527C62.6877 37.6537 62.6351 37.8506 62.5808 38.0423C61.9872 40.1359 61.0356 42.0883 60.0983 43.2697C59.0375 44.6075 57.0926 44.8322 55.7545 43.771C54.5315 42.8008 54.2391 41.0923 55.0086 39.7841C54.7001 39.758 54.3937 39.7143 54.0893 39.6518C51.4718 39.1155 49.5362 37.281 48.7502 34.5944C48.0995 32.3716 48.3063 30.2062 49.4071 28.4325C50.4752 26.7123 52.175 25.6992 53.8876 25.3099C57.0002 24.6019 60.9445 25.8685 62.5029 29.6593C64.4614 27.6389 66.4039 24.8496 67.9323 21.2873C68.606 19.7183 70.4241 18.992 71.9931 19.6654ZM54.6613 31.6938C55.8239 30.3842 57.4211 32.0081 57.0342 33.3988C55.3944 34.5944 53.6767 32.934 54.6613 31.6938Z" fill="url(#paint9_linear_3158_165406)"/>
<path fill-rule="evenodd" clip-rule="evenodd" d="M71.9931 19.6654C73.5624 20.3388 74.2887 22.1568 73.6154 23.7262C70.8793 30.1018 66.8271 34.8273 62.7375 37.4527C62.6877 37.6537 62.6351 37.8506 62.5808 38.0423C61.9872 40.1359 61.0356 42.0883 60.0983 43.2697C59.0375 44.6075 57.0926 44.8322 55.7545 43.771C54.5315 42.8008 54.2391 41.0923 55.0086 39.7841C54.7001 39.758 54.3937 39.7143 54.0893 39.6518C51.4718 39.1155 49.5362 37.281 48.7502 34.5944C48.0995 32.3716 48.3063 30.2062 49.4071 28.4325C50.4752 26.7123 52.175 25.6992 53.8876 25.3099C57.0002 24.6019 60.9445 25.8685 62.5029 29.6593C64.4614 27.6389 66.4039 24.8496 67.9323 21.2873C68.606 19.7183 70.4241 18.992 71.9931 19.6654ZM54.6613 31.6938C55.8239 30.3842 57.4211 32.0081 57.0342 33.3988C55.3944 34.5944 53.6767 32.934 54.6613 31.6938Z" fill="url(#paint10_radial_3158_165406)"/>
<path fill-rule="evenodd" clip-rule="evenodd" d="M71.9931 19.6654C73.5624 20.3388 74.2887 22.1568 73.6154 23.7262C70.8793 30.1018 66.8271 34.8273 62.7375 37.4527C62.6877 37.6537 62.6351 37.8506 62.5808 38.0423C61.9872 40.1359 61.0356 42.0883 60.0983 43.2697C59.0375 44.6075 57.0926 44.8322 55.7545 43.771C54.5315 42.8008 54.2391 41.0923 55.0086 39.7841C54.7001 39.758 54.3937 39.7143 54.0893 39.6518C51.4718 39.1155 49.5362 37.281 48.7502 34.5944C48.0995 32.3716 48.3063 30.2062 49.4071 28.4325C50.4752 26.7123 52.175 25.6992 53.8876 25.3099C57.0002 24.6019 60.9445 25.8685 62.5029 29.6593C64.4614 27.6389 66.4039 24.8496 67.9323 21.2873C68.606 19.7183 70.4241 18.992 71.9931 19.6654ZM54.6613 31.6938C55.8239 30.3842 57.4211 32.0081 57.0342 33.3988C55.3944 34.5944 53.6767 32.934 54.6613 31.6938Z" fill="url(#paint11_radial_3158_165406)"/>
<path d="M48.2785 72.2679C49.998 72.2679 51.3919 70.8739 51.3919 69.1544C51.3919 67.4349 49.998 66.041 48.2785 66.041C46.559 66.041 45.165 67.4349 45.165 69.1544C45.165 70.8739 46.559 72.2679 48.2785 72.2679Z" fill="url(#paint12_radial_3158_165406)"/>
<path d="M58.5334 58.4222C60.2528 58.4222 61.6468 57.0282 61.6468 55.3087C61.6468 53.5892 60.2528 52.1953 58.5334 52.1953C56.8139 52.1953 55.4199 53.5892 55.4199 55.3087C55.4199 57.0282 56.8139 58.4222 58.5334 58.4222Z" fill="url(#paint13_radial_3158_165406)"/>
<path d="M72.0607 68.7288C73.7802 68.7288 75.1741 67.3349 75.1741 65.6154C75.1741 63.8959 73.7802 62.502 72.0607 62.502C70.3412 62.502 68.9473 63.8959 68.9473 65.6154C68.9473 67.3349 70.3412 68.7288 72.0607 68.7288Z" fill="url(#paint14_radial_3158_165406)"/>
<path d="M34.5626 44.4298C36.1116 44.4298 37.3673 43.1741 37.3673 41.6251C37.3673 40.0761 36.1116 38.8203 34.5626 38.8203C33.0136 38.8203 31.7578 40.0761 31.7578 41.6251C31.7578 43.1741 33.0136 44.4298 34.5626 44.4298Z" fill="url(#paint15_radial_3158_165406)"/>
<path d="M24.2128 64.6463C25.6155 64.6463 26.7527 63.5091 26.7527 62.1063C26.7527 60.7036 25.6155 59.5664 24.2128 59.5664C22.81 59.5664 21.6729 60.7036 21.6729 62.1063C21.6729 63.5091 22.81 64.6463 24.2128 64.6463Z" fill="url(#paint16_radial_3158_165406)"/>
<path d="M24.2128 64.6463C25.6155 64.6463 26.7527 63.5091 26.7527 62.1063C26.7527 60.7036 25.6155 59.5664 24.2128 59.5664C22.81 59.5664 21.6729 60.7036 21.6729 62.1063C21.6729 63.5091 22.81 64.6463 24.2128 64.6463Z" fill="url(#paint17_radial_3158_165406)"/>
<path d="M11.1854 43.1229C14.5651 46.5027 24.2745 42.2728 32.872 33.6753C41.4695 25.0778 45.6994 15.3684 42.3197 11.9886C38.94 8.60893 29.2305 12.8388 20.633 21.4363C12.0355 30.0338 7.80568 39.7432 11.1854 43.1229Z" stroke="url(#paint18_linear_3158_165406)" stroke-width="0.727153"/>
<path d="M11.1893 43.121C14.569 46.5007 24.2785 42.2708 32.876 33.6733C41.4735 25.0758 45.7033 15.3664 42.3236 11.9867C38.9439 8.60698 29.2344 12.8368 20.6369 21.4343C12.0394 30.0318 7.80959 39.7413 11.1893 43.121Z" fill="url(#paint19_linear_3158_165406)"/>
<path d="M15.0546 27.9844C16.4473 26.0358 18.1005 24.0494 19.9777 22.1094C20.5761 23.33 21.1585 24.6798 21.6928 26.1076C23.1756 30.0705 24.4293 35.0097 24.6061 40.1643C24.8103 46.1219 22.8379 51.518 20.3884 55.7633C17.9456 59.9975 14.8996 63.3138 12.5975 65.1762C11.1225 66.3697 8.95925 66.1412 7.76579 64.6664C6.57236 63.1912 6.80065 61.0282 8.27569 59.8347C9.91016 58.512 12.4079 55.8464 14.4369 52.3298C16.4592 48.8246 17.8866 44.7013 17.7391 40.3997C17.5937 36.1603 16.5481 31.9648 15.2575 28.5156C15.1901 28.3355 15.1224 28.1583 15.0546 27.9844Z" fill="#24A4DC"/>
<path d="M15.0546 27.9844C16.4473 26.0358 18.1005 24.0494 19.9777 22.1094C20.5761 23.33 21.1585 24.6798 21.6928 26.1076C23.1756 30.0705 24.4293 35.0097 24.6061 40.1643C24.8103 46.1219 22.8379 51.518 20.3884 55.7633C17.9456 59.9975 14.8996 63.3138 12.5975 65.1762C11.1225 66.3697 8.95925 66.1412 7.76579 64.6664C6.57236 63.1912 6.80065 61.0282 8.27569 59.8347C9.91016 58.512 12.4079 55.8464 14.4369 52.3298C16.4592 48.8246 17.8866 44.7013 17.7391 40.3997C17.5937 36.1603 16.5481 31.9648 15.2575 28.5156C15.1901 28.3355 15.1224 28.1583 15.0546 27.9844Z" fill="url(#paint20_linear_3158_165406)"/>
<path d="M15.0546 27.9844C16.4473 26.0358 18.1005 24.0494 19.9777 22.1094C20.5761 23.33 21.1585 24.6798 21.6928 26.1076C23.1756 30.0705 24.4293 35.0097 24.6061 40.1643C24.8103 46.1219 22.8379 51.518 20.3884 55.7633C17.9456 59.9975 14.8996 63.3138 12.5975 65.1762C11.1225 66.3697 8.95925 66.1412 7.76579 64.6664C6.57236 63.1912 6.80065 61.0282 8.27569 59.8347C9.91016 58.512 12.4079 55.8464 14.4369 52.3298C16.4592 48.8246 17.8866 44.7013 17.7391 40.3997C17.5937 36.1603 16.5481 31.9648 15.2575 28.5156C15.1901 28.3355 15.1224 28.1583 15.0546 27.9844Z" fill="url(#paint21_radial_3158_165406)"/>
<path d="M15.0546 27.9844C16.4473 26.0358 18.1005 24.0494 19.9777 22.1094C20.5761 23.33 21.1585 24.6798 21.6928 26.1076C23.1756 30.0705 24.4293 35.0097 24.6061 40.1643C24.8103 46.1219 22.8379 51.518 20.3884 55.7633C17.9456 59.9975 14.8996 63.3138 12.5975 65.1762C11.1225 66.3697 8.95925 66.1412 7.76579 64.6664C6.57236 63.1912 6.80065 61.0282 8.27569 59.8347C9.91016 58.512 12.4079 55.8464 14.4369 52.3298C16.4592 48.8246 17.8866 44.7013 17.7391 40.3997C17.5937 36.1603 16.5481 31.9648 15.2575 28.5156C15.1901 28.3355 15.1224 28.1583 15.0546 27.9844Z" fill="url(#paint22_radial_3158_165406)"/>
<path d="M20.6064 21.466C20.6157 21.4567 20.625 21.4474 20.6343 21.4381C22.3988 19.6736 24.2101 18.093 26.004 16.7246C26.503 17.8892 27.2095 19.4074 28.0451 20.9688C29.2004 23.1281 30.4877 25.1526 31.6963 26.465C32.4635 27.2977 33.132 27.4101 35.2493 27.3901L35.5252 27.3867C37.5315 27.3606 40.9279 27.3163 43.7852 30.2289C46.6779 33.0714 46.5814 36.3414 46.5226 38.3429C46.515 38.5988 46.5078 38.8342 46.5078 39.0451V46.3899C46.5078 46.8499 46.6923 47.2903 47.0201 47.6133L49.1879 49.7498C50.5391 51.0814 50.5552 53.2568 49.2233 54.6083C47.8913 55.9595 45.7163 55.9753 44.3648 54.6437C41.9925 52.5381 39.5898 49.924 39.6554 45.7227L39.6368 39.0451C39.6368 38.7204 39.6423 38.4064 39.6468 38.1292L39.6471 38.1014C39.6523 37.8069 39.6561 37.5568 39.6554 37.3177C39.654 36.8371 39.6327 36.5118 39.5898 36.2548C39.5272 35.88 39.4187 35.567 38.958 35.1187L38.924 35.0857L38.891 35.0517C38.1863 34.3268 37.5762 34.2392 35.3149 34.2608L35.2177 34.2618C33.097 34.2828 29.5876 34.3175 26.6424 31.1197C24.8448 29.168 23.2336 26.5405 21.9868 24.2102C21.4815 23.2662 21.0173 22.3348 20.6064 21.466Z" fill="#FA3F99"/>
<path d="M20.6064 21.466C20.6157 21.4567 20.625 21.4474 20.6343 21.4381C22.3988 19.6736 24.2101 18.093 26.004 16.7246C26.503 17.8892 27.2095 19.4074 28.0451 20.9688C29.2004 23.1281 30.4877 25.1526 31.6963 26.465C32.4635 27.2977 33.132 27.4101 35.2493 27.3901L35.5252 27.3867C37.5315 27.3606 40.9279 27.3163 43.7852 30.2289C46.6779 33.0714 46.5814 36.3414 46.5226 38.3429C46.515 38.5988 46.5078 38.8342 46.5078 39.0451V46.3899C46.5078 46.8499 46.6923 47.2903 47.0201 47.6133L49.1879 49.7498C50.5391 51.0814 50.5552 53.2568 49.2233 54.6083C47.8913 55.9595 45.7163 55.9753 44.3648 54.6437C41.9925 52.5381 39.5898 49.924 39.6554 45.7227L39.6368 39.0451C39.6368 38.7204 39.6423 38.4064 39.6468 38.1292L39.6471 38.1014C39.6523 37.8069 39.6561 37.5568 39.6554 37.3177C39.654 36.8371 39.6327 36.5118 39.5898 36.2548C39.5272 35.88 39.4187 35.567 38.958 35.1187L38.924 35.0857L38.891 35.0517C38.1863 34.3268 37.5762 34.2392 35.3149 34.2608L35.2177 34.2618C33.097 34.2828 29.5876 34.3175 26.6424 31.1197C24.8448 29.168 23.2336 26.5405 21.9868 24.2102C21.4815 23.2662 21.0173 22.3348 20.6064 21.466Z" fill="url(#paint23_radial_3158_165406)"/>
<path d="M20.6064 21.466C20.6157 21.4567 20.625 21.4474 20.6343 21.4381C22.3988 19.6736 24.2101 18.093 26.004 16.7246C26.503 17.8892 27.2095 19.4074 28.0451 20.9688C29.2004 23.1281 30.4877 25.1526 31.6963 26.465C32.4635 27.2977 33.132 27.4101 35.2493 27.3901L35.5252 27.3867C37.5315 27.3606 40.9279 27.3163 43.7852 30.2289C46.6779 33.0714 46.5814 36.3414 46.5226 38.3429C46.515 38.5988 46.5078 38.8342 46.5078 39.0451V46.3899C46.5078 46.8499 46.6923 47.2903 47.0201 47.6133L49.1879 49.7498C50.5391 51.0814 50.5552 53.2568 49.2233 54.6083C47.8913 55.9595 45.7163 55.9753 44.3648 54.6437C41.9925 52.5381 39.5898 49.924 39.6554 45.7227L39.6368 39.0451C39.6368 38.7204 39.6423 38.4064 39.6468 38.1292L39.6471 38.1014C39.6523 37.8069 39.6561 37.5568 39.6554 37.3177C39.654 36.8371 39.6327 36.5118 39.5898 36.2548C39.5272 35.88 39.4187 35.567 38.958 35.1187L38.924 35.0857L38.891 35.0517C38.1863 34.3268 37.5762 34.2392 35.3149 34.2608L35.2177 34.2618C33.097 34.2828 29.5876 34.3175 26.6424 31.1197C24.8448 29.168 23.2336 26.5405 21.9868 24.2102C21.4815 23.2662 21.0173 22.3348 20.6064 21.466Z" fill="url(#paint24_radial_3158_165406)"/>
<path d="M20.6064 21.466C20.6157 21.4567 20.625 21.4474 20.6343 21.4381C22.3988 19.6736 24.2101 18.093 26.004 16.7246C26.503 17.8892 27.2095 19.4074 28.0451 20.9688C29.2004 23.1281 30.4877 25.1526 31.6963 26.465C32.4635 27.2977 33.132 27.4101 35.2493 27.3901L35.5252 27.3867C37.5315 27.3606 40.9279 27.3163 43.7852 30.2289C46.6779 33.0714 46.5814 36.3414 46.5226 38.3429C46.515 38.5988 46.5078 38.8342 46.5078 39.0451V46.3899C46.5078 46.8499 46.6923 47.2903 47.0201 47.6133L49.1879 49.7498C50.5391 51.0814 50.5552 53.2568 49.2233 54.6083C47.8913 55.9595 45.7163 55.9753 44.3648 54.6437C41.9925 52.5381 39.5898 49.924 39.6554 45.7227L39.6368 39.0451C39.6368 38.7204 39.6423 38.4064 39.6468 38.1292L39.6471 38.1014C39.6523 37.8069 39.6561 37.5568 39.6554 37.3177C39.654 36.8371 39.6327 36.5118 39.5898 36.2548C39.5272 35.88 39.4187 35.567 38.958 35.1187L38.924 35.0857L38.891 35.0517C38.1863 34.3268 37.5762 34.2392 35.3149 34.2608L35.2177 34.2618C33.097 34.2828 29.5876 34.3175 26.6424 31.1197C24.8448 29.168 23.2336 26.5405 21.9868 24.2102C21.4815 23.2662 21.0173 22.3348 20.6064 21.466Z" fill="url(#paint25_radial_3158_165406)"/>
<path d="M43.876 40.7148V46.481C43.876 47.8129 44.3916 49.093 45.3148 50.0529L46.9879 51.793" stroke="#FF5CAC" stroke-width="0.969537" stroke-linecap="round"/>
<path d="M80.6547 26.9727C82.3069 29.2013 83.6622 31.2856 84.5946 33.3167C83.0909 35.7518 81.717 38.7884 81.0522 41.9257C79.9374 47.1868 80.6881 53.0238 85.8925 58.4848C87.2014 59.8584 87.1492 62.033 85.7757 63.342C84.4022 64.6509 82.2275 64.5987 80.9186 63.2252C73.9273 55.889 72.817 47.6438 74.3306 40.5013C75.4654 35.1457 78.0589 30.4126 80.6547 26.9727Z" fill="#2BBAFE"/>
<path d="M80.6547 26.9727C82.3069 29.2013 83.6622 31.2856 84.5946 33.3167C83.0909 35.7518 81.717 38.7884 81.0522 41.9257C79.9374 47.1868 80.6881 53.0238 85.8925 58.4848C87.2014 59.8584 87.1492 62.033 85.7757 63.342C84.4022 64.6509 82.2275 64.5987 80.9186 63.2252C73.9273 55.889 72.817 47.6438 74.3306 40.5013C75.4654 35.1457 78.0589 30.4126 80.6547 26.9727Z" fill="url(#paint26_linear_3158_165406)"/>
<path d="M80.6557 26.9707C82.3078 29.1993 83.6632 31.2836 84.5955 33.3147C83.0918 35.7498 81.718 38.7864 81.0532 41.9238C79.9384 47.1849 80.689 53.0218 85.8935 58.4829C87.2024 59.8564 87.1502 62.0311 85.7767 63.34C84.4032 64.6489 82.2285 64.5967 80.9196 63.2232C73.9283 55.887 72.8179 47.6418 74.3316 40.4994C75.4664 35.1438 78.0598 30.4107 80.6557 26.9707Z" fill="url(#paint27_radial_3158_165406)"/>
<path d="M80.8088 36.7324C78.4291 40.6692 75.8273 50.9255 84.4591 60.4591" stroke="url(#paint28_linear_3158_165406)" stroke-width="1.45431" stroke-linecap="round"/>
<path d="M63.0672 37.2383C62.9562 37.3125 62.8456 37.3853 62.7346 37.4564C62.6848 37.6578 62.6323 37.8543 62.578 38.046C61.9843 40.1399 61.0327 42.092 60.0955 43.2734C59.0346 44.6116 57.0898 44.8359 55.7516 43.7747C54.5286 42.8048 54.2362 41.096 55.0058 39.7878C54.9728 39.785 54.9402 39.7819 54.9075 39.7788C56.65 39.7163 60.6304 38.7623 62.813 37.3798C62.8999 37.3249 62.9847 37.2778 63.0672 37.2383Z" fill="#2A82D3"/>
<path d="M63.0672 37.2383C62.9562 37.3125 62.8456 37.3853 62.7346 37.4564C62.6848 37.6578 62.6323 37.8543 62.578 38.046C61.9843 40.1399 61.0327 42.092 60.0955 43.2734C59.0346 44.6116 57.0898 44.8359 55.7516 43.7747C54.5286 42.8048 54.2362 41.096 55.0058 39.7878C54.9728 39.785 54.9402 39.7819 54.9075 39.7788C56.65 39.7163 60.6304 38.7623 62.813 37.3798C62.8999 37.3249 62.9847 37.2778 63.0672 37.2383Z" fill="url(#paint29_radial_3158_165406)"/>
<path d="M63.0672 37.2383C62.9562 37.3125 62.8456 37.3853 62.7346 37.4564C62.6848 37.6578 62.6323 37.8543 62.578 38.046C61.9843 40.1399 61.0327 42.092 60.0955 43.2734C59.0346 44.6116 57.0898 44.8359 55.7516 43.7747C54.5286 42.8048 54.2362 41.096 55.0058 39.7878C54.9728 39.785 54.9402 39.7819 54.9075 39.7788C56.65 39.7163 60.6304 38.7623 62.813 37.3798C62.8999 37.3249 62.9847 37.2778 63.0672 37.2383Z" fill="url(#paint30_radial_3158_165406)"/>
<path d="M62.5 29.6637C60.9417 25.8729 56.9974 24.6063 53.8848 25.3143C52.1722 25.7036 50.4723 26.7167 49.4042 28.4368C48.6281 29.6877 48.2963 31.1334 48.3962 32.6567H54.3833C54.3349 32.3451 54.4122 32.0084 54.6585 31.6982C55.8211 30.3886 57.4182 32.0125 57.0314 33.4032C58.2517 32.8511 61.0685 31.1402 62.5 29.6637Z" fill="url(#paint31_radial_3158_165406)"/>
<path d="M58.2052 36.6301C56.6706 36.9225 53.703 36.8043 52.2999 33.8814C50.5313 30.1971 55.3554 26.1082 59.3743 29.9807" stroke="url(#paint32_linear_3158_165406)" stroke-width="1.21192" stroke-linecap="round"/>
<path d="M72.0587 22.7793C71.0566 25.1412 67.7856 32.184 61.8594 35.8772" stroke="url(#paint33_linear_3158_165406)" stroke-width="1.21192" stroke-linecap="round"/>
<defs>
<radialGradient id="paint0_radial_3158_165406" cx="0" cy="0" r="1" gradientUnits="userSpaceOnUse" gradientTransform="translate(36.4168 15.5845) rotate(-132.541) scale(24.771 17.9775)">
<stop stop-color="#FFE94C"/>
<stop offset="1" stop-color="#FFE94C" stop-opacity="0"/>
</radialGradient>
<radialGradient id="paint1_radial_3158_165406" cx="0" cy="0" r="1" gradientUnits="userSpaceOnUse" gradientTransform="translate(13.0124 0.654298) rotate(61.1177) scale(46.2323 46.6703)">
<stop offset="0.683811" stop-color="#B9706D" stop-opacity="0"/>
<stop offset="1" stop-color="#B9706D"/>
</radialGradient>
<radialGradient id="paint2_radial_3158_165406" cx="0" cy="0" r="1" gradientUnits="userSpaceOnUse" gradientTransform="translate(31.4782 24.1733) rotate(176.876) scale(31.5251 31.574)">
<stop offset="0.838992" stop-color="#F3C893" stop-opacity="0"/>
<stop offset="1" stop-color="#F3C893"/>
</radialGradient>
<radialGradient id="paint3_radial_3158_165406" cx="0" cy="0" r="1" gradientUnits="userSpaceOnUse" gradientTransform="translate(80.4738 26.5276) rotate(-47.8156) scale(25.7226 21.4479)">
<stop stop-color="#FFE76D"/>
<stop offset="1" stop-color="#FFE76D" stop-opacity="0"/>
</radialGradient>
<radialGradient id="paint4_radial_3158_165406" cx="0" cy="0" r="1" gradientUnits="userSpaceOnUse" gradientTransform="translate(54.0826 7.84808) rotate(27.7904) scale(10.4122 10.4284)">
<stop stop-color="#D6BE6F"/>
<stop offset="1" stop-color="#D6BE6F" stop-opacity="0"/>
</radialGradient>
<linearGradient id="paint5_linear_3158_165406" x1="84.2628" y1="37.7917" x2="70.5328" y2="56.4034" gradientUnits="userSpaceOnUse">
<stop stop-color="#ECB43E"/>
<stop offset="1" stop-color="#925960"/>
</linearGradient>
<linearGradient id="paint6_linear_3158_165406" x1="74.2238" y1="32.9755" x2="94.7075" y2="64.8076" gradientUnits="userSpaceOnUse">
<stop stop-color="#572943"/>
<stop offset="1" stop-color="#4D2C30"/>
</linearGradient>
<linearGradient id="paint7_linear_3158_165406" x1="34.0562" y1="45.2155" x2="38.78" y2="63.0372" gradientUnits="userSpaceOnUse">
<stop stop-color="#C9136C"/>
<stop offset="1" stop-color="#C9136C" stop-opacity="0"/>
</linearGradient>
<linearGradient id="paint8_linear_3158_165406" x1="69.0561" y1="24.3854" x2="51.8786" y2="44.4406" gradientUnits="userSpaceOnUse">
<stop offset="0.252724" stop-color="#1DA2CD"/>
<stop offset="1" stop-color="#255EB1"/>
</linearGradient>
<linearGradient id="paint9_linear_3158_165406" x1="74.6388" y1="21.7016" x2="71.0958" y2="24.7077" gradientUnits="userSpaceOnUse">
<stop stop-color="#0D8CBA"/>
<stop offset="1" stop-color="#0D8CBA" stop-opacity="0"/>
</linearGradient>
<radialGradient id="paint10_radial_3158_165406" cx="0" cy="0" r="1" gradientUnits="userSpaceOnUse" gradientTransform="translate(63.044 22.8824) rotate(119.705) scale(19.282 12.4933)">
<stop offset="0.835044" stop-color="#3165CF" stop-opacity="0"/>
<stop offset="1" stop-color="#3165CF"/>
</radialGradient>
<radialGradient id="paint11_radial_3158_165406" cx="0" cy="0" r="1" gradientUnits="userSpaceOnUse" gradientTransform="translate(68.3436 33.8059) rotate(-168.317) scale(22.0115 21.5361)">
<stop offset="0.807628" stop-color="#2471AD" stop-opacity="0"/>
<stop offset="0.950123" stop-color="#2471AD"/>
</radialGradient>
<radialGradient id="paint12_radial_3158_165406" cx="0" cy="0" r="1" gradientUnits="userSpaceOnUse" gradientTransform="translate(50.1573 68.2956) rotate(130.855) scale(5.25186)">
<stop stop-color="#43C7F4"/>
<stop offset="1" stop-color="#2D64CF"/>
</radialGradient>
<radialGradient id="paint13_radial_3158_165406" cx="0" cy="0" r="1" gradientUnits="userSpaceOnUse" gradientTransform="translate(59.687 54.1712) rotate(140.042) scale(4.40679)">
<stop stop-color="#FF48A3"/>
<stop offset="1" stop-color="#DB1D93"/>
</radialGradient>
<radialGradient id="paint14_radial_3158_165406" cx="0" cy="0" r="1" gradientUnits="userSpaceOnUse" gradientTransform="translate(73.966 64.7833) rotate(144.498) scale(4.94531)">
<stop stop-color="#F7C851"/>
<stop offset="1" stop-color="#D97654"/>
</radialGradient>
<radialGradient id="paint15_radial_3158_165406" cx="0" cy="0" r="1" gradientUnits="userSpaceOnUse" gradientTransform="translate(35.046 42.6891) rotate(-96.8428) scale(4.05486 4.05486)">
<stop stop-color="#D48D3B"/>
<stop offset="1" stop-color="#B46518"/>
</radialGradient>
<radialGradient id="paint16_radial_3158_165406" cx="0" cy="0" r="1" gradientUnits="userSpaceOnUse" gradientTransform="translate(25.3033 61.7477) rotate(138.621) scale(3.00463)">
<stop stop-color="#F8AC4B"/>
<stop offset="1" stop-color="#E5A437"/>
</radialGradient>
<radialGradient id="paint17_radial_3158_165406" cx="0" cy="0" r="1" gradientUnits="userSpaceOnUse" gradientTransform="translate(23.5051 62.5258) rotate(-25.7553) scale(3.39724)">
<stop offset="0.756841" stop-color="#EB9530" stop-opacity="0"/>
<stop offset="1" stop-color="#EB9530"/>
</radialGradient>
<linearGradient id="paint18_linear_3158_165406" x1="21.6294" y1="16.1049" x2="35.3592" y2="34.7166" gradientUnits="userSpaceOnUse">
<stop stop-color="#EABE3F"/>
<stop offset="1" stop-color="#976061"/>
</linearGradient>
<linearGradient id="paint19_linear_3158_165406" x1="42.3237" y1="11.9866" x2="11.1894" y2="43.1209" gradientUnits="userSpaceOnUse">
<stop stop-color="#5E2B40"/>
<stop offset="1" stop-color="#6E4546"/>
</linearGradient>
<linearGradient id="paint20_linear_3158_165406" x1="8.03633" y1="66.8369" x2="14.2337" y2="61.1288" gradientUnits="userSpaceOnUse">
<stop stop-color="#3067D9"/>
<stop offset="1" stop-color="#3067D9" stop-opacity="0"/>
</linearGradient>
<radialGradient id="paint21_radial_3158_165406" cx="0" cy="0" r="1" gradientUnits="userSpaceOnUse" gradientTransform="translate(7.97642 38.3593) rotate(-5.85601) scale(18.2116 38.9628)">
<stop offset="0.655172" stop-color="#47CEFA" stop-opacity="0"/>
<stop offset="1" stop-color="#47CEFA"/>
</radialGradient>
<radialGradient id="paint22_radial_3158_165406" cx="0" cy="0" r="1" gradientUnits="userSpaceOnUse" gradientTransform="translate(13.9891 28.6739) rotate(16.4404) scale(5.18628 10.9908)">
<stop stop-color="#1569A5"/>
<stop offset="1" stop-color="#1569A5" stop-opacity="0"/>
</radialGradient>
<radialGradient id="paint23_radial_3158_165406" cx="0" cy="0" r="1" gradientUnits="userSpaceOnUse" gradientTransform="translate(20.6064 19.8812) rotate(63.9414) scale(23.053 5.80975)">
<stop stop-color="#A80963"/>
<stop offset="1" stop-color="#A80963" stop-opacity="0"/>
</radialGradient>
<radialGradient id="paint24_radial_3158_165406" cx="0" cy="0" r="1" gradientUnits="userSpaceOnUse" gradientTransform="translate(48.731 29.1364) rotate(92.7817) scale(21.881 9.11959)">
<stop offset="0.198253" stop-color="#A80963"/>
<stop offset="1" stop-color="#A80963" stop-opacity="0"/>
</radialGradient>
<radialGradient id="paint25_radial_3158_165406" cx="0" cy="0" r="1" gradientUnits="userSpaceOnUse" gradientTransform="translate(36.0343 46.8121) rotate(-83.9041) scale(12.894 5.58239)">
<stop stop-color="#A80963"/>
<stop offset="1" stop-color="#A80963" stop-opacity="0"/>
</radialGradient>
<linearGradient id="paint26_linear_3158_165406" x1="85.1583" y1="28.6866" x2="80.2895" y2="35.7724" gradientUnits="userSpaceOnUse">
<stop stop-color="#184E8C"/>
<stop offset="1" stop-color="#184E8C" stop-opacity="0"/>
</linearGradient>
<radialGradient id="paint27_radial_3158_165406" cx="0" cy="0" r="1" gradientUnits="userSpaceOnUse" gradientTransform="translate(86.842 54.988) rotate(164.748) scale(5.30535 17.4388)">
<stop stop-color="#4BDCFF"/>
<stop offset="1" stop-color="#4BDCFF" stop-opacity="0"/>
</radialGradient>
<linearGradient id="paint28_linear_3158_165406" x1="84.4591" y1="60.4591" x2="81.4774" y2="36.7324" gradientUnits="userSpaceOnUse">
<stop stop-color="#4BDAFF"/>
<stop offset="1" stop-color="#4BDAFF" stop-opacity="0"/>
</linearGradient>
<radialGradient id="paint29_radial_3158_165406" cx="0" cy="0" r="1" gradientUnits="userSpaceOnUse" gradientTransform="translate(58.4784 38.024) rotate(76.1713) scale(3.59333 11.7868)">
<stop offset="0.306182" stop-color="#1E58A8"/>
<stop offset="1" stop-color="#1E58A8" stop-opacity="0"/>
</radialGradient>
<radialGradient id="paint30_radial_3158_165406" cx="0" cy="0" r="1" gradientUnits="userSpaceOnUse" gradientTransform="translate(62.6652 39.527) rotate(163.015) scale(8.453 11.8929)">
<stop offset="0.590262" stop-color="#1E58A8" stop-opacity="0"/>
<stop offset="1" stop-color="#1E58A8"/>
</radialGradient>
<radialGradient id="paint31_radial_3158_165406" cx="0" cy="0" r="1" gradientUnits="userSpaceOnUse" gradientTransform="translate(58.8003 34.2401) rotate(-92.6291) scale(5.26615 4.32908)">
<stop offset="0.186923" stop-color="#3258A2"/>
<stop offset="1" stop-color="#3258A2" stop-opacity="0"/>
</radialGradient>
<linearGradient id="paint32_linear_3158_165406" x1="54.7707" y1="27.3501" x2="55.4376" y2="36.7346" gradientUnits="userSpaceOnUse">
<stop stop-color="#46B4E2"/>
<stop offset="1" stop-color="#46B4E2" stop-opacity="0"/>
</linearGradient>
<linearGradient id="paint33_linear_3158_165406" x1="71.4146" y1="22.7793" x2="63.3755" y2="38.0312" gradientUnits="userSpaceOnUse">
<stop stop-color="#46B4E2"/>
<stop offset="1" stop-color="#46B4E2" stop-opacity="0"/>
</linearGradient>
</defs>
</svg>
