<svg width="94" height="96" viewBox="0 0 94 96" fill="none" xmlns="http://www.w3.org/2000/svg">
<path d="M91.3661 58.2857H84.029C82.4861 58.2857 81.2518 57.0514 81.2518 55.5086V54.8571V28.8686C81.2518 18.2743 76.3833 7.37143 68.1547 0.822857C67.5033 0.274286 66.6461 0 65.789 0C64.9318 0 64.0747 0.274286 63.389 0.822857C57.389 5.62286 53.2061 13.1657 51.389 20.5714H42.5433C40.7261 13.1657 36.5433 5.62286 30.5433 0.822857C29.8918 0.274286 29.0347 0 28.1776 0C27.3204 0 26.4634 0.274286 25.7777 0.822857C17.5834 7.37143 12.7148 18.24 12.7148 28.8686V54.8571V55.5086C12.7148 57.0514 11.4806 58.2857 9.9377 58.2857H2.60056C1.19485 58.2857 0.166276 59.6571 0.543418 61.0286C6.23485 81.1886 24.7492 96 46.7604 96H47.0004H47.2404C69.2176 96 87.7661 81.2228 93.4576 61.0286C93.8347 59.6571 92.8061 58.2857 91.3661 58.2857Z" fill="url(#paint0_radial_3159_167097)"/>
<path d="M91.3661 58.2857H84.029C82.4861 58.2857 81.2518 57.0514 81.2518 55.5086V54.8571V28.8686C81.2518 18.2743 76.3833 7.37143 68.1547 0.822857C67.5033 0.274286 66.6461 0 65.789 0C64.9318 0 64.0747 0.274286 63.389 0.822857C57.389 5.62286 53.2061 13.1657 51.389 20.5714H42.5433C40.7261 13.1657 36.5433 5.62286 30.5433 0.822857C29.8918 0.274286 29.0347 0 28.1776 0C27.3204 0 26.4634 0.274286 25.7777 0.822857C17.5834 7.37143 12.7148 18.24 12.7148 28.8686V54.8571V55.5086C12.7148 57.0514 11.4806 58.2857 9.9377 58.2857H2.60056C1.19485 58.2857 0.166276 59.6571 0.543418 61.0286C6.23485 81.1886 24.7492 96 46.7604 96H47.0004H47.2404C69.2176 96 87.7661 81.2228 93.4576 61.0286C93.8347 59.6571 92.8061 58.2857 91.3661 58.2857Z" fill="url(#paint1_radial_3159_167097)"/>
<path d="M91.3661 58.2857H84.029C82.4861 58.2857 81.2518 57.0514 81.2518 55.5086V54.8571V28.8686C81.2518 18.2743 76.3833 7.37143 68.1547 0.822857C67.5033 0.274286 66.6461 0 65.789 0C64.9318 0 64.0747 0.274286 63.389 0.822857C57.389 5.62286 53.2061 13.1657 51.389 20.5714H42.5433C40.7261 13.1657 36.5433 5.62286 30.5433 0.822857C29.8918 0.274286 29.0347 0 28.1776 0C27.3204 0 26.4634 0.274286 25.7777 0.822857C17.5834 7.37143 12.7148 18.24 12.7148 28.8686V54.8571V55.5086C12.7148 57.0514 11.4806 58.2857 9.9377 58.2857H2.60056C1.19485 58.2857 0.166276 59.6571 0.543418 61.0286C6.23485 81.1886 24.7492 96 46.7604 96H47.0004H47.2404C69.2176 96 87.7661 81.2228 93.4576 61.0286C93.8347 59.6571 92.8061 58.2857 91.3661 58.2857Z" fill="url(#paint2_radial_3159_167097)"/>
<path d="M47.0012 86.7228C65.4964 86.7228 80.4897 71.8904 80.4897 53.5938C80.4897 35.2972 65.4964 20.4648 47.0012 20.4648C28.506 20.4648 13.5127 35.2972 13.5127 53.5938C13.5127 71.8904 28.506 86.7228 47.0012 86.7228Z" fill="url(#paint3_radial_3159_167097)" fill-opacity="0.5"/>
<path d="M62.2092 6.48242C60.7092 8.3753 56.3697 13.8217 55.084 20.4646" stroke="url(#paint4_linear_3159_167097)" stroke-width="0.623777" stroke-linecap="round"/>
<path d="M74.7207 10.9473C77.2921 14.483 79.8636 21.4473 79.8636 34.5187" stroke="#FFB160" stroke-width="0.623777" stroke-linecap="round"/>
<path d="M35.002 8.05469C36.6946 10.3817 39.6562 16.123 40.1921 20.4088" stroke="#FFB160" stroke-width="0.623777" stroke-linecap="round"/>
<path d="M68.1901 0.822857C67.5044 0.274286 66.6473 0 65.7901 0C64.933 0 64.0759 0.274286 63.3901 0.822857C59.2759 4.14857 55.9844 8.74286 53.7559 13.7143H77.9959C75.733 8.67428 72.4073 4.18286 68.1901 0.822857Z" fill="url(#paint5_linear_3159_167097)"/>
<path d="M68.1901 0.822857C67.5044 0.274286 66.6473 0 65.7901 0C64.933 0 64.0759 0.274286 63.3901 0.822857C59.2759 4.14857 55.9844 8.74286 53.7559 13.7143H77.9959C75.733 8.67428 72.4073 4.18286 68.1901 0.822857Z" fill="url(#paint6_linear_3159_167097)"/>
<path d="M68.1901 0.822857C67.5044 0.274286 66.6473 0 65.7901 0C64.933 0 64.0759 0.274286 63.3901 0.822857C59.2759 4.14857 55.9844 8.74286 53.7559 13.7143H77.9959C75.733 8.67428 72.4073 4.18286 68.1901 0.822857Z" fill="url(#paint7_linear_3159_167097)"/>
<path d="M74.4093 34.2937C74.9267 34.9853 76.1085 34.6328 76.1085 33.7692V28.8697C76.1085 20.3671 72.4742 12.3785 66.2 6.82421C65.96 6.61849 65.5828 6.61849 65.3428 6.82421C61.3496 10.3908 58.4401 14.9331 56.8561 19.9692C56.5245 21.0235 57.1691 22.1082 58.2131 22.4706C64.7435 24.7371 70.3677 28.8917 74.4093 34.2937Z" fill="url(#paint8_linear_3159_167097)"/>
<path d="M74.4093 34.2937C74.9267 34.9853 76.1085 34.6328 76.1085 33.7692V28.8697C76.1085 20.3671 72.4742 12.3785 66.2 6.82421C65.96 6.61849 65.5828 6.61849 65.3428 6.82421C61.3496 10.3908 58.4401 14.9331 56.8561 19.9692C56.5245 21.0235 57.1691 22.1082 58.2131 22.4706C64.7435 24.7371 70.3677 28.8917 74.4093 34.2937Z" fill="url(#paint9_linear_3159_167097)"/>
<path d="M74.4093 34.2937C74.9267 34.9853 76.1085 34.6328 76.1085 33.7692V28.8697C76.1085 20.3671 72.4742 12.3785 66.2 6.82421C65.96 6.61849 65.5828 6.61849 65.3428 6.82421C61.3496 10.3908 58.4401 14.9331 56.8561 19.9692C56.5245 21.0235 57.1691 22.1082 58.2131 22.4706C64.7435 24.7371 70.3677 28.8917 74.4093 34.2937Z" fill="url(#paint10_linear_3159_167097)"/>
<path d="M74.4093 34.2937C74.9267 34.9853 76.1085 34.6328 76.1085 33.7692V28.8697C76.1085 20.3671 72.4742 12.3785 66.2 6.82421C65.96 6.61849 65.5828 6.61849 65.3428 6.82421C61.3496 10.3908 58.4401 14.9331 56.8561 19.9692C56.5245 21.0235 57.1691 22.1082 58.2131 22.4706C64.7435 24.7371 70.3677 28.8917 74.4093 34.2937Z" fill="url(#paint11_linear_3159_167097)"/>
<path d="M74.4093 34.2937C74.9267 34.9853 76.1085 34.6328 76.1085 33.7692V28.8697C76.1085 20.3671 72.4742 12.3785 66.2 6.82421C65.96 6.61849 65.5828 6.61849 65.3428 6.82421C61.3496 10.3908 58.4401 14.9331 56.8561 19.9692C56.5245 21.0235 57.1691 22.1082 58.2131 22.4706C64.7435 24.7371 70.3677 28.8917 74.4093 34.2937Z" fill="url(#paint12_radial_3159_167097)"/>
<path d="M74.4093 34.2937C74.9267 34.9853 76.1085 34.6328 76.1085 33.7692V28.8697C76.1085 20.3671 72.4742 12.3785 66.2 6.82421C65.96 6.61849 65.5828 6.61849 65.3428 6.82421C61.3496 10.3908 58.4401 14.9331 56.8561 19.9692C56.5245 21.0235 57.1691 22.1082 58.2131 22.4706C64.7435 24.7371 70.3677 28.8917 74.4093 34.2937Z" fill="url(#paint13_linear_3159_167097)"/>
<path d="M59.2531 62.6763C57.8474 62.6763 56.6816 61.5106 56.6816 60.1049V54.9621C56.6816 53.5567 57.8474 52.3906 59.2531 52.3906C60.6588 52.3906 61.8245 53.5567 61.8245 54.9621V60.1049C61.8245 61.5106 60.6588 62.6763 59.2531 62.6763Z" fill="#CD5C25"/>
<path d="M33.2648 62.6763C31.8591 62.6763 30.6934 61.5106 30.6934 60.1049V54.9621C30.6934 53.5567 31.8591 52.3906 33.2648 52.3906C34.6705 52.3906 35.8362 53.5567 35.8362 54.9621V60.1049C35.8362 61.5106 34.7048 62.6763 33.2648 62.6763Z" fill="#CD5C25"/>
<path d="M60.0968 61.7115C58.6911 61.7115 57.5254 60.5458 57.5254 59.1401V53.9972C57.5254 52.5915 58.6911 51.4258 60.0968 51.4258C61.5025 51.4258 62.6682 52.5915 62.6682 53.9972V59.1401C62.6682 60.5458 61.5025 61.7115 60.0968 61.7115Z" fill="url(#paint14_linear_3159_167097)"/>
<path d="M60.0968 61.7115C58.6911 61.7115 57.5254 60.5458 57.5254 59.1401V53.9972C57.5254 52.5915 58.6911 51.4258 60.0968 51.4258C61.5025 51.4258 62.6682 52.5915 62.6682 53.9972V59.1401C62.6682 60.5458 61.5025 61.7115 60.0968 61.7115Z" fill="url(#paint15_linear_3159_167097)"/>
<path d="M34.1076 61.7115C32.7018 61.7115 31.5361 60.5458 31.5361 59.1401V53.9972C31.5361 52.5915 32.7018 51.4258 34.1076 51.4258C35.5133 51.4258 36.679 52.5915 36.679 53.9972V59.1401C36.679 60.5458 35.5476 61.7115 34.1076 61.7115Z" fill="url(#paint16_linear_3159_167097)"/>
<path d="M34.1076 61.7115C32.7018 61.7115 31.5361 60.5458 31.5361 59.1401V53.9972C31.5361 52.5915 32.7018 51.4258 34.1076 51.4258C35.5133 51.4258 36.679 52.5915 36.679 53.9972V59.1401C36.679 60.5458 35.5476 61.7115 34.1076 61.7115Z" fill="url(#paint17_linear_3159_167097)"/>
<path d="M22.1268 10.5547C20.6268 12.4476 16.0732 19.3297 16.0732 27.644C16.0732 35.9583 16.0732 35.144 16.0732 34.6084" stroke="url(#paint18_linear_3159_167097)" stroke-width="0.623777" stroke-linecap="round"/>
<path d="M40.1428 13.5429C37.9142 8.64 34.657 4.11428 30.577 0.822857C29.8913 0.274286 29.0342 0 28.177 0C27.3199 0 26.4628 0.274286 25.7771 0.822857C21.6285 4.14857 18.3028 8.57143 16.0742 13.5429H40.1428Z" fill="url(#paint19_linear_3159_167097)"/>
<path d="M40.1428 13.5429C37.9142 8.64 34.657 4.11428 30.577 0.822857C29.8913 0.274286 29.0342 0 28.177 0C27.3199 0 26.4628 0.274286 25.7771 0.822857C21.6285 4.14857 18.3028 8.57143 16.0742 13.5429H40.1428Z" fill="url(#paint20_linear_3159_167097)"/>
<path d="M40.1428 13.5429C37.9142 8.64 34.657 4.11428 30.577 0.822857C29.8913 0.274286 29.0342 0 28.177 0C27.3199 0 26.4628 0.274286 25.7771 0.822857C21.6285 4.14857 18.3028 8.57143 16.0742 13.5429H40.1428Z" fill="url(#paint21_linear_3159_167097)"/>
<path d="M92.0866 65.1094H69.938C63.938 65.1094 58.0752 66.9951 53.2066 70.4922L47.0009 74.9151L40.7952 70.4922C35.9266 66.9951 30.0637 65.1094 24.0637 65.1094H1.88086C8.77229 83.1779 26.258 96.0008 46.7266 96.0008H46.9666H47.2066C67.7094 95.9665 85.1952 83.1437 92.0866 65.1094Z" fill="url(#paint22_radial_3159_167097)"/>
<path d="M92.0866 65.1094H69.938C63.938 65.1094 58.0752 66.9951 53.2066 70.4922L47.0009 74.9151L40.7952 70.4922C35.9266 66.9951 30.0637 65.1094 24.0637 65.1094H1.88086C8.77229 83.1779 26.258 96.0008 46.7266 96.0008H46.9666H47.2066C67.7094 95.9665 85.1952 83.1437 92.0866 65.1094Z" fill="url(#paint23_radial_3159_167097)"/>
<path d="M92.0866 65.1094H69.938C63.938 65.1094 58.0752 66.9951 53.2066 70.4922L47.0009 74.9151L40.7952 70.4922C35.9266 66.9951 30.0637 65.1094 24.0637 65.1094H1.88086C8.77229 83.1779 26.258 96.0008 46.7266 96.0008H46.9666H47.2066C67.7094 95.9665 85.1952 83.1437 92.0866 65.1094Z" fill="url(#paint24_radial_3159_167097)"/>
<path d="M92.0866 65.1094H69.938C63.938 65.1094 58.0752 66.9951 53.2066 70.4922L47.0009 74.9151L40.7952 70.4922C35.9266 66.9951 30.0637 65.1094 24.0637 65.1094H1.88086C8.77229 83.1779 26.258 96.0008 46.7266 96.0008H46.9666H47.2066C67.7094 95.9665 85.1952 83.1437 92.0866 65.1094Z" fill="url(#paint25_radial_3159_167097)"/>
<path d="M92.0866 65.1094H69.938C63.938 65.1094 58.0752 66.9951 53.2066 70.4922L47.0009 74.9151L40.7952 70.4922C35.9266 66.9951 30.0637 65.1094 24.0637 65.1094H1.88086C8.77229 83.1779 26.258 96.0008 46.7266 96.0008H46.9666H47.2066C67.7094 95.9665 85.1952 83.1437 92.0866 65.1094Z" fill="url(#paint26_radial_3159_167097)"/>
<path d="M92.0866 65.1094H69.938C63.938 65.1094 58.0752 66.9951 53.2066 70.4922L47.0009 74.9151L40.7952 70.4922C35.9266 66.9951 30.0637 65.1094 24.0637 65.1094H1.88086C8.77229 83.1779 26.258 96.0008 46.7266 96.0008H46.9666H47.2066C67.7094 95.9665 85.1952 83.1437 92.0866 65.1094Z" fill="url(#paint27_radial_3159_167097)"/>
<path d="M44.198 75.2708L40.394 71.4668C38.5426 69.6153 39.8554 66.4844 42.4813 66.4844H50.0893C52.6813 66.4844 50.5608 68.115 48.7093 69.9664L48.3387 75.2708C48.2345 75.3753 48.1241 75.4703 48.0089 75.5557C48.0867 79.4389 51.2417 82.5452 55.1441 82.5452C56.0739 82.5452 56.8275 83.2988 56.8275 84.2283C56.8275 85.1581 56.0739 85.9117 55.1441 85.9117C51.4165 85.9117 48.1488 83.9804 46.2853 81.062C44.4219 83.9804 41.1545 85.9117 37.4266 85.9117C36.4968 85.9117 35.7432 85.1581 35.7432 84.2283C35.7432 83.2988 36.4968 82.5452 37.4266 82.5452C41.3208 82.5452 44.4706 79.4519 44.5615 75.5797C44.4343 75.4881 44.3125 75.3853 44.198 75.2708Z" fill="#B66A7D"/>
<path d="M46.9594 74.1973C46.9594 79.1687 42.948 83.1801 37.9766 83.1801" stroke="url(#paint28_radial_3159_167097)" stroke-width="2.49511" stroke-linecap="round"/>
<path d="M46.9594 74.1973C46.9594 79.1687 42.948 83.1801 37.9766 83.1801" stroke="url(#paint29_radial_3159_167097)" stroke-width="2.49511" stroke-linecap="round"/>
<path d="M46.9594 74.1973C46.9594 79.1687 42.948 83.1801 37.9766 83.1801" stroke="url(#paint30_linear_3159_167097)" stroke-width="2.49511" stroke-linecap="round"/>
<path d="M47.04 74.1973C47.04 79.1687 51.0515 83.1801 56.0229 83.1801" stroke="url(#paint31_radial_3159_167097)" stroke-width="2.49511" stroke-linecap="round"/>
<path d="M47.04 74.1973C47.04 79.1687 51.0515 83.1801 56.0229 83.1801" stroke="url(#paint32_radial_3159_167097)" stroke-width="2.49511" stroke-linecap="round"/>
<path d="M41.0012 70.1837L44.8755 74.0579C46.0412 75.2237 47.9269 75.2237 49.0927 74.0579L52.9669 70.1837C54.8527 68.2979 53.5155 65.1094 50.8755 65.1094H43.1269C40.4527 65.1094 39.1155 68.2979 41.0012 70.1837Z" fill="url(#paint33_linear_3159_167097)"/>
<path d="M41.0012 70.1837L44.8755 74.0579C46.0412 75.2237 47.9269 75.2237 49.0927 74.0579L52.9669 70.1837C54.8527 68.2979 53.5155 65.1094 50.8755 65.1094H43.1269C40.4527 65.1094 39.1155 68.2979 41.0012 70.1837Z" fill="url(#paint34_radial_3159_167097)"/>
<path d="M41.0012 70.1837L44.8755 74.0579C46.0412 75.2237 47.9269 75.2237 49.0927 74.0579L52.9669 70.1837C54.8527 68.2979 53.5155 65.1094 50.8755 65.1094H43.1269C40.4527 65.1094 39.1155 68.2979 41.0012 70.1837Z" fill="url(#paint35_linear_3159_167097)"/>
<path d="M41.0012 70.1837L44.8755 74.0579C46.0412 75.2237 47.9269 75.2237 49.0927 74.0579L52.9669 70.1837C54.8527 68.2979 53.5155 65.1094 50.8755 65.1094H43.1269C40.4527 65.1094 39.1155 68.2979 41.0012 70.1837Z" fill="url(#paint36_linear_3159_167097)"/>
<path d="M35.689 22.4735C36.7316 22.1098 37.3752 21.0258 37.0433 19.9726C35.4535 14.9291 32.5166 10.3584 28.5223 6.791C28.2823 6.58529 27.9051 6.58529 27.6651 6.791C21.4595 12.3796 17.8252 20.3339 17.8252 28.8026V33.8121C17.8252 34.6754 19.0044 35.0271 19.5209 34.3356C23.5777 28.9051 29.1812 24.7429 35.689 22.4735Z" fill="url(#paint37_linear_3159_167097)"/>
<path d="M35.689 22.4735C36.7316 22.1098 37.3752 21.0258 37.0433 19.9726C35.4535 14.9291 32.5166 10.3584 28.5223 6.791C28.2823 6.58529 27.9051 6.58529 27.6651 6.791C21.4595 12.3796 17.8252 20.3339 17.8252 28.8026V33.8121C17.8252 34.6754 19.0044 35.0271 19.5209 34.3356C23.5777 28.9051 29.1812 24.7429 35.689 22.4735Z" fill="url(#paint38_linear_3159_167097)"/>
<path d="M35.689 22.4735C36.7316 22.1098 37.3752 21.0258 37.0433 19.9726C35.4535 14.9291 32.5166 10.3584 28.5223 6.791C28.2823 6.58529 27.9051 6.58529 27.6651 6.791C21.4595 12.3796 17.8252 20.3339 17.8252 28.8026V33.8121C17.8252 34.6754 19.0044 35.0271 19.5209 34.3356C23.5777 28.9051 29.1812 24.7429 35.689 22.4735Z" fill="url(#paint39_linear_3159_167097)"/>
<path d="M35.689 22.4735C36.7316 22.1098 37.3752 21.0258 37.0433 19.9726C35.4535 14.9291 32.5166 10.3584 28.5223 6.791C28.2823 6.58529 27.9051 6.58529 27.6651 6.791C21.4595 12.3796 17.8252 20.3339 17.8252 28.8026V33.8121C17.8252 34.6754 19.0044 35.0271 19.5209 34.3356C23.5777 28.9051 29.1812 24.7429 35.689 22.4735Z" fill="url(#paint40_linear_3159_167097)"/>
<path d="M35.689 22.4735C36.7316 22.1098 37.3752 21.0258 37.0433 19.9726C35.4535 14.9291 32.5166 10.3584 28.5223 6.791C28.2823 6.58529 27.9051 6.58529 27.6651 6.791C21.4595 12.3796 17.8252 20.3339 17.8252 28.8026V33.8121C17.8252 34.6754 19.0044 35.0271 19.5209 34.3356C23.5777 28.9051 29.1812 24.7429 35.689 22.4735Z" fill="url(#paint41_radial_3159_167097)"/>
<path d="M35.689 22.4735C36.7316 22.1098 37.3752 21.0258 37.0433 19.9726C35.4535 14.9291 32.5166 10.3584 28.5223 6.791C28.2823 6.58529 27.9051 6.58529 27.6651 6.791C21.4595 12.3796 17.8252 20.3339 17.8252 28.8026V33.8121C17.8252 34.6754 19.0044 35.0271 19.5209 34.3356C23.5777 28.9051 29.1812 24.7429 35.689 22.4735Z" fill="url(#paint42_linear_3159_167097)"/>
<path d="M50.7701 69.1046C51.3766 69.1046 51.8683 68.6129 51.8683 68.0064C51.8683 67.3999 51.3766 66.9082 50.7701 66.9082C50.1636 66.9082 49.6719 67.3999 49.6719 68.0064C49.6719 68.6129 50.1636 69.1046 50.7701 69.1046Z" fill="#6A6566"/>
<path d="M91.6036 60.6075C91.7329 60.409 91.6763 60.1436 91.4778 60.0147C91.2796 59.8855 91.0139 59.942 90.885 60.1405L91.6036 60.6075ZM81.49 66.1207C81.2617 66.1824 81.1263 66.4176 81.1876 66.6459C81.2493 66.8746 81.4845 67.01 81.7129 66.9487L81.49 66.1207ZM90.885 60.1405C90.8291 60.2263 90.6913 60.3809 90.4533 60.601C90.2233 60.8136 89.924 61.0666 89.5695 61.3471C88.8615 61.9076 87.9491 62.5669 86.9692 63.218C84.9913 64.5322 82.8076 65.7661 81.49 66.1207L81.7129 66.9487C83.1813 66.553 85.4706 65.2426 87.4437 63.9319C88.4394 63.2701 89.3716 62.5971 90.1016 62.0191C90.4664 61.7304 90.7842 61.4626 91.0355 61.2301C91.2786 61.0049 91.4853 60.7896 91.6036 60.6075L90.885 60.1405Z" fill="url(#paint43_linear_3159_167097)"/>
<path d="M2.94428 60.6075C2.8153 60.409 2.8716 60.1436 3.07004 60.0147C3.26852 59.8855 3.53396 59.942 3.66295 60.1405L2.94428 60.6075ZM13.0579 66.1207C13.2865 66.1824 13.4219 66.4176 13.3603 66.6459C13.2988 66.8746 13.0636 67.01 12.8351 66.9487L13.0579 66.1207ZM3.66295 60.1405C3.71883 60.2263 3.85687 60.3809 4.09477 60.601C4.32456 60.8136 4.62411 61.0666 4.97839 61.3471C5.68645 61.9076 6.599 62.5669 7.57875 63.218C9.55673 64.5322 11.7405 65.7661 13.0579 66.1207L12.8351 66.9487C11.3667 66.553 9.07731 65.2426 7.10441 63.9319C6.10868 63.2701 5.17635 62.5971 4.44637 62.0191C4.08164 61.7304 3.76385 61.4626 3.51253 61.2301C3.26935 61.0049 3.06253 60.7896 2.94428 60.6075L3.66295 60.1405Z" fill="url(#paint44_linear_3159_167097)"/>
<path d="M66.498 2.27539C68.0248 3.64147 72.2032 7.65934 74.7211 12.2129" stroke="#665D5F" stroke-width="0.623777" stroke-linecap="round"/>
<path d="M28.458 2.27539C29.9848 3.64147 34.1632 7.65934 36.6811 12.2129" stroke="#665D5F" stroke-width="0.623777" stroke-linecap="round"/>
<path d="M65.9369 2.27539C64.4102 3.64147 60.2318 7.65934 57.7139 12.2129" stroke="url(#paint45_linear_3159_167097)" stroke-opacity="0.5" stroke-width="0.623777" stroke-linecap="round"/>
<path d="M27.897 2.27539C26.3702 3.64147 22.1917 7.65934 19.6738 12.2129" stroke="url(#paint46_linear_3159_167097)" stroke-opacity="0.5" stroke-width="0.623777" stroke-linecap="round"/>
<defs>
<radialGradient id="paint0_radial_3159_167097" cx="0" cy="0" r="1" gradientUnits="userSpaceOnUse" gradientTransform="translate(61.2976 36) rotate(136.338) scale(71.3866)">
<stop stop-color="#FFC177"/>
<stop offset="0.284634" stop-color="#FF8D28"/>
<stop offset="0.610861" stop-color="#F4763D"/>
</radialGradient>
<radialGradient id="paint1_radial_3159_167097" cx="0" cy="0" r="1" gradientUnits="userSpaceOnUse" gradientTransform="translate(92.369 55.2857) rotate(134.433) scale(15.3046 10.4071)">
<stop stop-color="#E78327"/>
<stop offset="1" stop-color="#F4953D" stop-opacity="0"/>
</radialGradient>
<radialGradient id="paint2_radial_3159_167097" cx="0" cy="0" r="1" gradientUnits="userSpaceOnUse" gradientTransform="translate(-1.16655 60.6429) rotate(32.6375) scale(11.3237 6.06737)">
<stop stop-color="#C9510E"/>
<stop offset="1" stop-color="#C9510E" stop-opacity="0"/>
</radialGradient>
<radialGradient id="paint3_radial_3159_167097" cx="0" cy="0" r="1" gradientUnits="userSpaceOnUse" gradientTransform="translate(47.0012 61.2862) rotate(-90) scale(46.0714 44.5114)">
<stop offset="0.795349" stop-color="#F46639" stop-opacity="0"/>
<stop offset="1" stop-color="#F46639"/>
</radialGradient>
<linearGradient id="paint4_linear_3159_167097" x1="62.3807" y1="18.536" x2="62.3807" y2="-20.1426" gradientUnits="userSpaceOnUse">
<stop stop-color="#FFB444"/>
<stop offset="1" stop-color="#FFB444" stop-opacity="0"/>
</linearGradient>
<linearGradient id="paint5_linear_3159_167097" x1="65.8759" y1="-4.66546" x2="67.9117" y2="12.5623" gradientUnits="userSpaceOnUse">
<stop offset="0.191489" stop-color="#5F5254"/>
<stop offset="1" stop-color="#2E2127"/>
</linearGradient>
<linearGradient id="paint6_linear_3159_167097" x1="67.8099" y1="3.71647" x2="67.4647" y2="-4.99081" gradientUnits="userSpaceOnUse">
<stop offset="0.146552" stop-color="#34222C" stop-opacity="0"/>
<stop offset="0.872727" stop-color="#34222C"/>
</linearGradient>
<linearGradient id="paint7_linear_3159_167097" x1="72.0116" y1="18.1193" x2="72.0116" y2="8.57143" gradientUnits="userSpaceOnUse">
<stop stop-color="#552D52"/>
<stop offset="1" stop-color="#552D52" stop-opacity="0"/>
</linearGradient>
<linearGradient id="paint8_linear_3159_167097" x1="72.2257" y1="40.2872" x2="60.8685" y2="10.9301" gradientUnits="userSpaceOnUse">
<stop stop-color="#FC5737"/>
<stop offset="1" stop-color="#EF7E3F"/>
</linearGradient>
<linearGradient id="paint9_linear_3159_167097" x1="78.0114" y1="36.7897" x2="70.7257" y2="19.5015" gradientUnits="userSpaceOnUse">
<stop stop-color="#E83525"/>
<stop offset="1" stop-color="#E83525" stop-opacity="0"/>
</linearGradient>
<linearGradient id="paint10_linear_3159_167097" x1="77.1542" y1="19.5015" x2="69.7616" y2="19.5015" gradientUnits="userSpaceOnUse">
<stop stop-color="#E83525"/>
<stop offset="1" stop-color="#E83525" stop-opacity="0"/>
</linearGradient>
<linearGradient id="paint11_linear_3159_167097" x1="78.8685" y1="8.78724" x2="68.7971" y2="18.4301" gradientUnits="userSpaceOnUse">
<stop stop-color="#BF5733"/>
<stop offset="1" stop-color="#BF5733" stop-opacity="0"/>
</linearGradient>
<radialGradient id="paint12_radial_3159_167097" cx="0" cy="0" r="1" gradientUnits="userSpaceOnUse" gradientTransform="translate(56.3257 25.2872) rotate(-22.746) scale(7.48193 16.5161)">
<stop stop-color="#FF894C"/>
<stop offset="1" stop-color="#FF894C" stop-opacity="0"/>
</radialGradient>
<linearGradient id="paint13_linear_3159_167097" x1="56.3257" y1="15.1087" x2="60.8685" y2="18.323" gradientUnits="userSpaceOnUse">
<stop stop-color="#FF894C"/>
<stop offset="1" stop-color="#FF894C" stop-opacity="0"/>
</linearGradient>
<linearGradient id="paint14_linear_3159_167097" x1="62.3689" y1="56.5686" x2="59.539" y2="56.5686" gradientUnits="userSpaceOnUse">
<stop offset="0.225" stop-color="#594C4F"/>
<stop offset="1" stop-color="#392833"/>
</linearGradient>
<linearGradient id="paint15_linear_3159_167097" x1="63.4716" y1="63.5112" x2="63.4716" y2="58.059" gradientUnits="userSpaceOnUse">
<stop stop-color="#552D52"/>
<stop offset="1" stop-color="#552D52" stop-opacity="0"/>
</linearGradient>
<linearGradient id="paint16_linear_3159_167097" x1="36.3797" y1="56.5686" x2="33.5497" y2="56.5686" gradientUnits="userSpaceOnUse">
<stop offset="0.225" stop-color="#594C4F"/>
<stop offset="1" stop-color="#392833"/>
</linearGradient>
<linearGradient id="paint17_linear_3159_167097" x1="37.4826" y1="63.5112" x2="37.4826" y2="58.059" gradientUnits="userSpaceOnUse">
<stop stop-color="#552D52"/>
<stop offset="1" stop-color="#552D52" stop-opacity="0"/>
</linearGradient>
<linearGradient id="paint18_linear_3159_167097" x1="22.1268" y1="25.9297" x2="22.1268" y2="-12.7489" gradientUnits="userSpaceOnUse">
<stop stop-color="#FFB444"/>
<stop offset="1" stop-color="#FFB444" stop-opacity="0"/>
</linearGradient>
<linearGradient id="paint19_linear_3159_167097" x1="28.1085" y1="-4.60714" x2="30.1084" y2="12.4078" gradientUnits="userSpaceOnUse">
<stop offset="0.191489" stop-color="#5F5254"/>
<stop offset="1" stop-color="#2E2127"/>
</linearGradient>
<linearGradient id="paint20_linear_3159_167097" x1="30.0288" y1="3.67001" x2="29.6901" y2="-4.92857" gradientUnits="userSpaceOnUse">
<stop offset="0.146552" stop-color="#34222C" stop-opacity="0"/>
<stop offset="0.872727" stop-color="#34222C"/>
</linearGradient>
<linearGradient id="paint21_linear_3159_167097" x1="34.2007" y1="17.8929" x2="34.2007" y2="8.46428" gradientUnits="userSpaceOnUse">
<stop stop-color="#552D52"/>
<stop offset="1" stop-color="#552D52" stop-opacity="0"/>
</linearGradient>
<radialGradient id="paint22_radial_3159_167097" cx="0" cy="0" r="1" gradientUnits="userSpaceOnUse" gradientTransform="translate(68.5837 57.0008) rotate(116.074) scale(49.1441 68.6287)">
<stop offset="0.0844541" stop-color="#FFDFA1"/>
<stop offset="1" stop-color="#EBA582"/>
</radialGradient>
<radialGradient id="paint23_radial_3159_167097" cx="0" cy="0" r="1" gradientUnits="userSpaceOnUse" gradientTransform="translate(46.9837 65.1094) rotate(90) scale(34.32 73.9714)">
<stop offset="0.512987" stop-color="#D87DA0" stop-opacity="0"/>
<stop offset="1" stop-color="#D87DA0"/>
</radialGradient>
<radialGradient id="paint24_radial_3159_167097" cx="0" cy="0" r="1" gradientUnits="userSpaceOnUse" gradientTransform="translate(46.9837 65.1094) rotate(128.469) scale(46.5713 152.017)">
<stop offset="0.588887" stop-color="#D87DA0" stop-opacity="0"/>
<stop offset="1" stop-color="#D87DA0"/>
</radialGradient>
<radialGradient id="paint25_radial_3159_167097" cx="0" cy="0" r="1" gradientUnits="userSpaceOnUse" gradientTransform="translate(46.9837 65.1094) rotate(90) scale(36.2486 55.0971)">
<stop offset="0.7921" stop-color="#C55188" stop-opacity="0"/>
<stop offset="1" stop-color="#C55188"/>
</radialGradient>
<radialGradient id="paint26_radial_3159_167097" cx="0" cy="0" r="1" gradientUnits="userSpaceOnUse" gradientTransform="translate(75.6552 60.4294) rotate(118.156) scale(17.2563 24.4336)">
<stop stop-color="#F9E58C"/>
<stop offset="1" stop-color="#F9E58C" stop-opacity="0"/>
</radialGradient>
<radialGradient id="paint27_radial_3159_167097" cx="0" cy="0" r="1" gradientUnits="userSpaceOnUse" gradientTransform="translate(25.5124 100.072) rotate(-46.0662) scale(30.9463 38.6033)">
<stop stop-color="#D87DA0"/>
<stop offset="1" stop-color="#D87DA0" stop-opacity="0"/>
</radialGradient>
<radialGradient id="paint28_radial_3159_167097" cx="0" cy="0" r="1" gradientUnits="userSpaceOnUse" gradientTransform="translate(39.3192 76.1193) rotate(54.3924) scale(10.2132 12.8193)">
<stop stop-color="#261317"/>
<stop offset="0.588542" stop-color="#4E4647"/>
<stop offset="0.747451" stop-color="#2F172A"/>
</radialGradient>
<radialGradient id="paint29_radial_3159_167097" cx="0" cy="0" r="1" gradientUnits="userSpaceOnUse" gradientTransform="translate(42.1049 79.7622) rotate(-128.517) scale(3.35496 5.55792)">
<stop stop-color="#261317"/>
<stop offset="1" stop-color="#261317" stop-opacity="0"/>
</radialGradient>
<linearGradient id="paint30_linear_3159_167097" x1="46.4979" y1="77.2442" x2="44.0873" y2="80.7263" gradientUnits="userSpaceOnUse">
<stop stop-color="#2F172A"/>
<stop offset="1" stop-color="#2F172A" stop-opacity="0"/>
</linearGradient>
<radialGradient id="paint31_radial_3159_167097" cx="0" cy="0" r="1" gradientUnits="userSpaceOnUse" gradientTransform="translate(55.4994 76.3871) rotate(122.471) scale(10.4773 14.9266)">
<stop stop-color="#261317"/>
<stop offset="0.588542" stop-color="#4E4647"/>
<stop offset="0.747451" stop-color="#2F172A"/>
</radialGradient>
<radialGradient id="paint32_radial_3159_167097" cx="0" cy="0" r="1" gradientUnits="userSpaceOnUse" gradientTransform="translate(52.8206 77.1373) rotate(135.988) scale(4.39481 7.28057)">
<stop stop-color="#261317"/>
<stop offset="1" stop-color="#261317" stop-opacity="0"/>
</radialGradient>
<linearGradient id="paint33_linear_3159_167097" x1="50.7723" y1="64.2947" x2="42.086" y2="71.9771" gradientUnits="userSpaceOnUse">
<stop offset="0.191489" stop-color="#5F5254"/>
<stop offset="1" stop-color="#2E2127"/>
</linearGradient>
<radialGradient id="paint34_radial_3159_167097" cx="0" cy="0" r="1" gradientUnits="userSpaceOnUse" gradientTransform="translate(47.9729 66.9947) rotate(132.349) scale(6.17307 11.3186)">
<stop offset="0.462647" stop-color="#34222C" stop-opacity="0"/>
<stop offset="0.955607" stop-color="#34222C"/>
</radialGradient>
<linearGradient id="paint35_linear_3159_167097" x1="48.0802" y1="67.7713" x2="48.0802" y2="63.0097" gradientUnits="userSpaceOnUse">
<stop offset="0.146552" stop-color="#34222C" stop-opacity="0"/>
<stop offset="0.872727" stop-color="#34222C"/>
</linearGradient>
<linearGradient id="paint36_linear_3159_167097" x1="50.4603" y1="75.7571" x2="50.4603" y2="68.5585" gradientUnits="userSpaceOnUse">
<stop stop-color="#552D52"/>
<stop offset="1" stop-color="#552D52" stop-opacity="0"/>
</linearGradient>
<linearGradient id="paint37_linear_3159_167097" x1="33.6977" y1="40.3305" x2="20.7312" y2="15.0372" gradientUnits="userSpaceOnUse">
<stop stop-color="#FC5737"/>
<stop offset="1" stop-color="#EF7E3F"/>
</linearGradient>
<linearGradient id="paint38_linear_3159_167097" x1="37.5737" y1="31.0737" x2="27.6638" y2="18.6735" gradientUnits="userSpaceOnUse">
<stop offset="0.139209" stop-color="#E83525"/>
<stop offset="1" stop-color="#E83525" stop-opacity="0"/>
</linearGradient>
<linearGradient id="paint39_linear_3159_167097" x1="38.6177" y1="19.4975" x2="31.2377" y2="19.4975" gradientUnits="userSpaceOnUse">
<stop stop-color="#E83525"/>
<stop offset="1" stop-color="#E83525" stop-opacity="0"/>
</linearGradient>
<linearGradient id="paint40_linear_3159_167097" x1="37.5737" y1="13.2879" x2="30.2547" y2="18.3944" gradientUnits="userSpaceOnUse">
<stop stop-color="#BF5733"/>
<stop offset="1" stop-color="#BF5733" stop-opacity="0"/>
</linearGradient>
<radialGradient id="paint41_radial_3159_167097" cx="0" cy="0" r="1" gradientUnits="userSpaceOnUse" gradientTransform="translate(13.0852 17.5737) rotate(10.6197) scale(10.465 43.7818)">
<stop stop-color="#FF894C"/>
<stop offset="1" stop-color="#FF894C" stop-opacity="0"/>
</radialGradient>
<linearGradient id="paint42_linear_3159_167097" x1="17.8252" y1="15.0947" x2="25.1001" y2="19.0462" gradientUnits="userSpaceOnUse">
<stop stop-color="#FF894C"/>
<stop offset="1" stop-color="#FF894C" stop-opacity="0"/>
</linearGradient>
<linearGradient id="paint43_linear_3159_167097" x1="92.3157" y1="60.374" x2="84.0121" y2="65.5704" gradientUnits="userSpaceOnUse">
<stop offset="0.211043" stop-color="#FFCB8C"/>
<stop offset="1" stop-color="#FFCB8C" stop-opacity="0"/>
</linearGradient>
<linearGradient id="paint44_linear_3159_167097" x1="2.2322" y1="60.374" x2="14.9033" y2="68.1418" gradientUnits="userSpaceOnUse">
<stop offset="0.211043" stop-color="#FFD199"/>
<stop offset="1" stop-color="#FFCB8C" stop-opacity="0"/>
</linearGradient>
<linearGradient id="paint45_linear_3159_167097" x1="65.9369" y1="2.27539" x2="58.1692" y2="12.5879" gradientUnits="userSpaceOnUse">
<stop stop-color="#665D5F"/>
<stop offset="1" stop-color="#665D5F" stop-opacity="0"/>
</linearGradient>
<linearGradient id="paint46_linear_3159_167097" x1="27.897" y1="2.27539" x2="20.1292" y2="12.5879" gradientUnits="userSpaceOnUse">
<stop stop-color="#665D5F"/>
<stop offset="1" stop-color="#665D5F" stop-opacity="0"/>
</linearGradient>
</defs>
</svg>
