<svg width="92" height="96" viewBox="0 0 92 96" fill="none" xmlns="http://www.w3.org/2000/svg">
<path d="M56.9491 60.3714C56.7199 60.4406 56.497 60.5187 56.2804 60.6081C56.164 60.6552 56.0391 60.6774 55.9137 60.6733C55.7882 60.6691 55.665 60.6387 55.552 60.584C55.4391 60.5293 55.3388 60.4515 55.2578 60.3556C55.1767 60.2598 55.1166 60.148 55.0815 60.0275L51.5024 48.002L10.7383 60.1333L20.4567 92.791C20.7969 93.9325 21.5766 94.8921 22.6242 95.4589C23.6718 96.0257 24.9016 96.1532 26.0432 95.8134L58.1996 86.2423C59.3411 85.9021 60.3008 85.1225 60.8676 84.0749C61.4344 83.0272 61.5619 81.7974 61.2221 80.6558L58.925 72.9347C58.8887 72.8145 58.878 72.6881 58.8935 72.5635C58.909 72.439 58.9504 72.319 59.015 72.2114C59.0797 72.1038 59.1661 72.011 59.2688 71.9388C59.3715 71.8667 59.4882 71.8168 59.6114 71.7925C59.8437 71.7491 60.0737 71.6936 60.3002 71.6262C63.6753 70.6187 65.6601 67.2877 64.7357 64.1784C63.8113 61.069 60.3242 59.3676 56.9491 60.3714Z" fill="url(#paint0_radial_3160_168011)"/>
<mask id="mask0_3160_168011" style="mask-type:luminance" maskUnits="userSpaceOnUse" x="10" y="48" width="55" height="48">
<path d="M56.9481 60.3694C56.7189 60.4387 56.496 60.5167 56.2794 60.6062C56.1631 60.6533 56.0381 60.6755 55.9127 60.6713C55.7872 60.6671 55.664 60.6367 55.5511 60.582C55.4381 60.5273 55.3378 60.4495 55.2568 60.3537C55.1757 60.2579 55.1157 60.1461 55.0805 60.0256L51.5014 48L10.7373 60.1314L20.4558 92.789C20.796 93.9305 21.5756 94.8902 22.6232 95.457C23.6708 96.0237 24.9006 96.1513 26.0423 95.8115L58.1987 86.2404C59.3402 85.9002 60.2998 85.1205 60.8666 84.0729C61.4334 83.0253 61.5609 81.7955 61.2211 80.6539L58.924 72.9327C58.8877 72.8126 58.877 72.6861 58.8925 72.5616C58.908 72.437 58.9494 72.3171 59.014 72.2095C59.0787 72.1019 59.1651 72.009 59.2679 71.9369C59.3706 71.8647 59.4873 71.8148 59.6104 71.7905C59.8428 71.7472 60.0727 71.6917 60.2993 71.6243C63.6743 70.6168 65.6591 67.2858 64.7347 64.1764C63.8103 61.0671 60.3232 59.3657 56.9481 60.3694Z" fill="white"/>
</mask>
<g mask="url(#mask0_3160_168011)">
<path opacity="0.25" d="M46.0468 91.0442C46.0468 91.0442 28.2118 96.0502 24.2838 93.1436C20.9743 90.7004 20.8219 88.1817 16.1245 78.2441C16.0716 86.8078 20.745 100.862 20.745 100.862L46.0468 91.0442Z" fill="#99ADF9"/>
</g>
<path opacity="0.25" d="M25.9326 57.2281C25.9326 57.2281 27.673 65.56 33.9812 63.6836C40.2893 61.8071 37.185 53.877 37.185 53.877L25.9326 57.2281Z" fill="#99ADF9"/>
<path d="M40.5033 11.043L4.04112 21.8911C2.89972 22.231 1.94008 23.0104 1.37327 24.0578C0.80646 25.1052 0.678909 26.3349 1.01867 27.4763L10.7384 60.1339L24.7273 55.9781C24.8378 55.9447 24.954 55.9349 25.0685 55.9491C25.183 55.9632 25.2933 56.0012 25.3923 56.0605C25.4912 56.1198 25.5768 56.1991 25.6433 56.2933C25.7099 56.3875 25.7561 56.4946 25.7789 56.6077C25.82 56.8176 25.8721 57.0275 25.935 57.2374C26.9425 60.6112 30.2735 62.5972 33.3816 61.6716C36.4897 60.746 38.1974 57.2639 37.1924 53.8863C37.1294 53.6772 37.0589 53.4719 36.9783 53.273C36.9363 53.1659 36.9169 53.0513 36.9216 52.9364C36.9262 52.8214 36.9548 52.7087 37.0053 52.6054C37.0559 52.5021 37.1275 52.4105 37.2154 52.3364C37.3033 52.2622 37.4057 52.2072 37.5161 52.1748L51.505 48.0114L40.5033 11.043Z" fill="url(#paint1_radial_3160_168011)"/>
<mask id="mask1_3160_168011" style="mask-type:luminance" maskUnits="userSpaceOnUse" x="0" y="11" width="52" height="51">
<path d="M40.5033 11.041L4.04113 21.8891C2.89972 22.229 1.94008 23.0084 1.37327 24.0558C0.80646 25.1032 0.678909 26.3329 1.01867 27.4743L10.7384 60.132L24.7273 55.9761C24.8378 55.9428 24.954 55.9329 25.0685 55.9471C25.183 55.9613 25.2933 55.9992 25.3923 56.0585C25.4912 56.1178 25.5768 56.1971 25.6433 56.2913C25.7099 56.3856 25.7561 56.4927 25.7789 56.6058C25.82 56.8157 25.8721 57.0256 25.935 57.2355C26.9425 60.6093 30.2735 62.5953 33.3816 61.6696C36.4897 60.744 38.1974 57.2619 37.1924 53.8843C37.1294 53.6753 37.0589 53.47 36.9783 53.271C36.9363 53.164 36.9169 53.0493 36.9216 52.9344C36.9262 52.8195 36.9548 52.7068 37.0053 52.6035C37.0559 52.5002 37.1275 52.4086 37.2154 52.3344C37.3033 52.2603 37.4057 52.2052 37.5161 52.1728L51.505 48.0094L40.5033 11.041Z" fill="white"/>
</mask>
<g mask="url(#mask1_3160_168011)">
<path opacity="0.52" d="M6.09068 46.8985C6.09068 46.8985 1.08978 29.0635 3.99008 25.1356C6.43449 21.826 10.7604 19.8891 15.8696 18.3678C7.30596 18.3149 -3.72852 21.5968 -3.72852 21.5968L6.09068 46.8985Z" fill="#FCA55D"/>
</g>
<path d="M40.5037 11.0423L43.6357 21.5655C43.6865 21.7331 43.7007 21.9096 43.6775 22.0832C43.6543 22.2568 43.5943 22.4234 43.5013 22.5718C43.4084 22.7202 43.2847 22.847 43.1387 22.9436C42.9927 23.0403 42.8276 23.1046 42.6547 23.1321C42.3281 23.1807 42.0053 23.2522 41.6888 23.3462C38.315 24.3537 36.329 27.6847 37.2546 30.794C38.1802 33.9034 41.6623 35.6085 45.0387 34.6048C45.3554 34.5111 45.6648 34.394 45.9643 34.2547C46.124 34.1844 46.2969 34.1489 46.4714 34.1506C46.6459 34.1523 46.818 34.1911 46.9764 34.2645C47.1347 34.3379 47.2756 34.4442 47.3897 34.5763C47.5037 34.7083 47.5884 34.8632 47.638 35.0305L51.4979 48.0019L64.8131 44.0374C65.1947 43.921 65.5148 43.6584 65.7035 43.3068C65.8923 42.9553 65.9343 42.5434 65.8206 42.161L65.8092 42.1232C64.8017 38.7481 66.5119 35.2622 69.62 34.3379C72.7281 33.4135 76.0629 35.3982 77.0666 38.7733L77.0779 38.8098C77.1923 39.1933 77.454 39.5158 77.8058 39.7066C78.1575 39.8973 78.5706 39.9408 78.9544 39.8274L87.9588 37.1475C89.1002 36.8076 90.0598 36.0282 90.6266 34.9808C91.1934 33.9333 91.321 32.7037 90.9812 31.5622L82.5435 3.20909C82.2036 2.06769 81.4242 1.10804 80.3768 0.541237C79.3294 -0.0255715 78.0997 -0.153122 76.9583 0.186639L40.5037 11.0423Z" fill="url(#paint2_radial_3160_168011)"/>
<mask id="mask2_3160_168011" style="mask-type:luminance" maskUnits="userSpaceOnUse" x="37" y="0" width="55" height="49">
<path d="M40.5027 11.0423L43.6348 21.5655C43.6855 21.7331 43.6997 21.9096 43.6765 22.0832C43.6534 22.2568 43.5933 22.4234 43.5003 22.5718C43.4074 22.7202 43.2838 22.847 43.1377 22.9436C42.9917 23.0403 42.8267 23.1046 42.6537 23.1321C42.3271 23.1807 42.0043 23.2522 41.6878 23.3462C38.314 24.3537 36.328 27.6847 37.2536 30.794C38.1792 33.9034 41.6613 35.6085 45.0377 34.6048C45.3544 34.5111 45.6638 34.394 45.9633 34.2547C46.123 34.1844 46.2959 34.1489 46.4704 34.1506C46.6449 34.1523 46.8171 34.1911 46.9754 34.2645C47.1337 34.3379 47.2746 34.4442 47.3887 34.5763C47.5028 34.7083 47.5874 34.8632 47.637 35.0305L51.4969 48.0019L64.8121 44.0374C65.1937 43.921 65.5138 43.6584 65.7026 43.3068C65.8913 42.9553 65.9334 42.5434 65.8196 42.161L65.8082 42.1232C64.8008 38.7481 66.511 35.2622 69.619 34.3379C72.7271 33.4135 76.0619 35.3982 77.0656 38.7733L77.077 38.8098C77.1913 39.1933 77.453 39.5158 77.8048 39.7066C78.1566 39.8973 78.5696 39.9408 78.9534 39.8274L87.9578 37.1475C89.0992 36.8076 90.0588 36.0282 90.6257 34.9808C91.1925 33.9333 91.32 32.7037 90.9802 31.5622L82.5426 3.20909C82.2026 2.06769 81.4233 1.10804 80.3759 0.541237C79.3284 -0.0255715 78.0988 -0.153122 76.9573 0.186639L40.5027 11.0423Z" fill="white"/>
</mask>
<g mask="url(#mask2_3160_168011)">
<path opacity="0.19" d="M41.6878 23.3441C41.6878 23.3441 38.1918 25.1929 39.4663 29.4822C40.7407 33.7716 43.7216 34.3295 45.6824 34.6796C42.1562 37.7499 31.7363 33.5235 31.7363 33.5235L35.6731 22.9336L41.6878 23.3441Z" fill="url(#paint3_linear_3160_168011)"/>
<path opacity="0.19" d="M88.4061 22.8797C88.4061 22.8797 82.841 5.21219 78.2658 3.50828C74.4096 2.07387 68.8899 1.5462 63.7832 3.06625C70.9275 -1.66264 82.7995 -3.67383 82.7995 -3.67383L88.4061 22.8797Z" fill="#FFD0DA"/>
</g>
<path d="M15.5798 38.2378C16.7706 38.2378 17.7359 37.2725 17.7359 36.0818C17.7359 34.8911 16.7706 33.9258 15.5798 33.9258C14.3891 33.9258 13.4238 34.8911 13.4238 36.0818C13.4238 37.2725 14.3891 38.2378 15.5798 38.2378Z" fill="#1C3177"/>
<path d="M31.572 33.48C32.7628 33.48 33.728 32.5147 33.728 31.324C33.728 30.1332 32.7628 29.168 31.572 29.168C30.3813 29.168 29.416 30.1332 29.416 31.324C29.416 32.5147 30.3813 33.48 31.572 33.48Z" fill="#1C3177"/>
<path d="M27.248 36.192C27.248 36.192 27.2876 37.8713 25.3464 38.5763C23.4052 39.2812 22.4161 37.9474 22.4161 37.9474" stroke="#1C3177" stroke-width="1.69963" stroke-miterlimit="10" stroke-linecap="round"/>
<path d="M28.9929 75.7515C30.1837 75.7515 31.149 74.7862 31.149 73.5955C31.149 72.4047 30.1837 71.4395 28.9929 71.4395C27.8022 71.4395 26.8369 72.4047 26.8369 73.5955C26.8369 74.7862 27.8022 75.7515 28.9929 75.7515Z" fill="#1C3177"/>
<path d="M44.9851 70.9917C46.1759 70.9917 47.1411 70.0264 47.1411 68.8357C47.1411 67.645 46.1759 66.6797 44.9851 66.6797C43.7944 66.6797 42.8291 67.645 42.8291 68.8357C42.8291 70.0264 43.7944 70.9917 44.9851 70.9917Z" fill="#1C3177"/>
<path d="M59.0437 23.1486C59.3824 24.2896 58.5399 24.8399 57.3977 25.1799C56.2555 25.52 55.2492 25.52 54.9092 24.379C54.8218 24.1056 54.7897 23.8176 54.815 23.5317C54.8403 23.2458 54.9224 22.9679 55.0564 22.7141C55.1905 22.4604 55.3738 22.2359 55.5957 22.0539C55.8176 21.8718 56.0735 21.7359 56.3486 21.6541C56.6237 21.5722 56.9123 21.5461 57.1976 21.5771C57.4829 21.6082 57.7591 21.6959 58.0101 21.8351C58.2611 21.9743 58.4818 22.1622 58.6593 22.3877C58.8367 22.6132 58.9674 22.8719 59.0437 23.1486Z" fill="#1C3177"/>
<path d="M75.0349 18.3888C75.3749 19.5311 74.5311 20.0801 73.3889 20.4202C72.2467 20.7602 71.2404 20.7602 70.9004 19.6192C70.813 19.3459 70.781 19.0578 70.8062 18.772C70.8315 18.4861 70.9136 18.2081 71.0476 17.9544C71.1817 17.7006 71.365 17.4761 71.5869 17.2941C71.8088 17.1121 72.0647 16.9762 72.3398 16.8943C72.6149 16.8124 72.9035 16.7863 73.1888 16.8174C73.4741 16.8485 73.7504 16.9362 74.0013 17.0754C74.2523 17.2145 74.473 17.4024 74.6505 17.6279C74.8279 17.8535 74.9586 18.1122 75.0349 18.3888Z" fill="#1C3177"/>
<path d="M62.5657 25.4178C62.6451 24.331 63.9649 24.4468 65.8778 23.8776C67.7908 23.3084 68.7051 22.3664 69.4934 23.3562C70.5009 24.6156 68.7718 26.6054 66.8589 27.1746C64.9459 27.7438 62.4486 27.0197 62.5657 25.4178Z" fill="#F774B9"/>
<path d="M41.7303 73.2296L33.9991 75.53C33.2645 75.7486 32.8461 76.5213 33.0647 77.256C33.2833 77.9906 34.0561 78.4089 34.7907 78.1903L42.5219 75.89C43.2565 75.6714 43.6749 74.8987 43.4563 74.164C43.2377 73.4294 42.465 73.011 41.7303 73.2296Z" fill="white"/>
<path d="M76.4854 67.5586L78.6351 71.45" stroke="#1C3177" stroke-width="2.26617" stroke-miterlimit="10" stroke-linecap="round"/>
<path d="M81.0537 54.2103L85.0824 52.3301" stroke="#1C3177" stroke-width="2.26617" stroke-miterlimit="10" stroke-linecap="round"/>
<path d="M80.8027 61.4102L85.9976 63.1178" stroke="#1C3177" stroke-width="2.26617" stroke-miterlimit="10" stroke-linecap="round"/>
<defs>
<radialGradient id="paint0_radial_3160_168011" cx="0" cy="0" r="1" gradientUnits="userSpaceOnUse" gradientTransform="translate(43.5 60) rotate(119.638) scale(33.3654 37.6934)">
<stop stop-color="#99ADF9"/>
<stop offset="1" stop-color="#6C85E1"/>
</radialGradient>
<radialGradient id="paint1_radial_3160_168011" cx="0" cy="0" r="1" gradientUnits="userSpaceOnUse" gradientTransform="translate(33 17.5) rotate(123.69) scale(37.8583 51.9891)">
<stop stop-color="#FFBF74"/>
<stop offset="1" stop-color="#F67B39"/>
</radialGradient>
<radialGradient id="paint2_radial_3160_168011" cx="0" cy="0" r="1" gradientUnits="userSpaceOnUse" gradientTransform="translate(61.5 -7.5) rotate(86.6335) scale(42.5735 30.055)">
<stop stop-color="#FFC6C4"/>
<stop offset="1" stop-color="#FF97C9"/>
</radialGradient>
<linearGradient id="paint3_linear_3160_168011" x1="35.6157" y1="29.6713" x2="43.8172" y2="33.0775" gradientUnits="userSpaceOnUse">
<stop stop-color="#FF97C9"/>
<stop offset="1" stop-color="#EAA490"/>
</linearGradient>
</defs>
</svg>
