<svg width="96" height="94" viewBox="0 0 96 94" fill="none" xmlns="http://www.w3.org/2000/svg">
<path d="M94.7899 45.2437L83.5205 41.6113C76.3122 39.2328 72.0892 33.3999 70.1071 26.0703L65.1479 1.9133C65.0185 1.43599 64.7029 0.796875 63.7321 0.796875C62.915 0.796875 62.4458 1.43599 62.3164 1.9133L57.3572 26.0783C55.367 33.4079 51.1521 39.2409 43.9438 41.6194L32.6744 45.2518C31.0806 45.7696 31.0564 48.0186 32.642 48.5606L43.9924 52.4681C51.1764 54.8547 55.367 60.6796 57.3572 67.9768L62.3245 91.8668C62.4539 92.3441 62.7209 93.2016 63.7402 93.2016C64.8162 93.2016 65.0266 92.3441 65.156 91.8668L70.1233 67.9768C72.1134 60.6715 76.3041 54.8466 83.4881 52.4681L94.8385 48.5606C96.4079 48.0105 96.3837 45.7615 94.7899 45.2437Z" fill="#FDD835"/>
<path d="M95.8575 46.2542C95.6796 45.8092 95.3317 45.4209 94.7896 45.2429L83.5202 41.6105C76.3119 39.232 72.0889 33.3991 70.1068 26.0694L65.1476 1.9125C65.0748 1.63744 64.8159 1.13586 64.5166 0.990234L66.1184 25.2362C67.3077 36.3034 68.327 41.5134 77.1614 43.0343C84.7499 44.3449 93.5276 45.8497 95.8575 46.2542Z" fill="#FFEE58"/>
<path d="M95.8811 47.5176L76.3355 51.9995C69.4508 53.7469 65.6566 57.7353 65.6566 68.1715L63.7393 93.2022C64.3946 93.1375 64.9285 92.7815 65.155 91.8673L70.1223 67.9774C72.1125 60.672 76.3031 54.8472 83.4871 52.4687L94.8375 48.5612C95.3714 48.367 95.7112 47.9706 95.8811 47.5176Z" fill="#F4B400"/>
<path d="M30.2468 66.2614C23.5078 64.0366 22.8929 61.5287 21.7603 57.2976L18.9369 47.3954C18.767 46.7562 17.1004 46.7562 16.9225 47.3954L15.0051 56.5452C13.8644 60.7601 11.4374 64.1094 7.29527 65.4767L0.693777 68.3405C-0.220401 68.6399 -0.236581 69.9343 0.677597 70.2417L7.32763 72.5959C11.4536 73.9631 13.8644 77.3124 15.0132 81.5112L16.9305 90.2646C17.1085 90.9037 18.767 90.9037 18.9369 90.2646L21.1859 81.5516C22.3266 77.3286 24.0741 73.9712 29.6805 72.5959L35.926 70.2417C36.8402 69.9262 36.8321 68.6318 35.9098 68.3325L30.2468 66.2614Z" fill="#FDD835"/>
<path d="M19.4712 57.1527C20.1588 63.5115 20.5067 65.2751 25.6601 66.5938L36.3956 68.6891C36.2824 68.5354 36.1206 68.406 35.9021 68.3412L30.2391 66.2621C24.3252 64.2396 22.691 61.6669 21.5827 56.5217C20.4744 51.3764 19.2932 48.019 19.2932 48.019C18.8806 46.9107 18.29 46.9673 18.29 46.9673L19.4712 57.1527Z" fill="#FFEE58"/>
<path d="M19.6648 79.3521C19.6648 73.3574 22.9413 70.3883 28.1513 70.3883L36.2576 70.0566C36.2576 70.0566 35.7884 70.6796 34.9713 70.8737L29.6804 72.5969C25.1904 74.401 23.1436 75.3071 21.7521 81.4475C21.7521 81.4475 19.9561 88.591 19.6163 89.3434C19.1471 90.3951 18.5889 90.6135 18.5889 90.6135L19.6648 79.3521Z" fill="#F4B400"/>
<path d="M44.7521 18.7972C45.2051 18.6434 45.1889 17.9962 44.7278 17.8668L38.4823 16.1841C37.1717 15.8281 36.1523 14.8168 35.7802 13.5143L33.3208 3.3613C33.1995 2.86781 32.4956 2.86781 32.3743 3.36939L30.0605 13.482C29.7045 14.8249 28.6528 15.8605 27.3099 16.2083L21.1048 17.8183C20.6437 17.9396 20.6113 18.5868 21.0643 18.7486L27.6092 21.0138C28.7823 21.4183 29.6884 22.373 30.0443 23.5622L32.3824 32.9386C32.5037 33.424 33.1995 33.4321 33.3208 32.9386L35.7397 23.5298C36.1038 22.3406 37.018 21.3941 38.1991 20.9977L44.7521 18.7972Z" fill="#F4B400" stroke="#F4B400" stroke-width="0.570785" stroke-miterlimit="10"/>
</svg>
