<svg width="230" height="102" viewBox="0 0 230 102" fill="none" xmlns="http://www.w3.org/2000/svg">
<path d="M72.0977 67.2273V77.5909H0V70.1591L44.6841 1.36364H55.0328L43.9303 21.2727L14.3921 67.2273H72.0977ZM58.1853 1.36364V100.636H45.5066V1.36364H58.1853Z" fill="#ABB6C1"/>
<path d="M146.251 43.0909V58.2273C146.251 66.3636 145.52 73.2273 144.058 78.8182C142.596 84.4091 140.495 88.9091 137.753 92.3182C135.012 95.7273 131.699 98.2045 127.816 99.75C123.978 101.25 119.637 102 114.794 102C110.956 102 107.416 101.523 104.172 100.568C100.928 99.6136 98.0036 98.0909 95.3993 96C92.8407 93.8636 90.6476 91.0909 88.82 87.6818C86.9925 84.2727 85.5989 80.1364 84.6395 75.2727C83.68 70.4091 83.2002 64.7273 83.2002 58.2273V43.0909C83.2002 34.9545 83.9313 28.1364 85.3933 22.6364C86.9011 17.1364 89.0256 12.7273 91.767 9.40909C94.5083 6.04545 97.798 3.63636 101.636 2.18182C105.519 0.727273 109.86 0 114.657 0C118.541 0 122.105 0.477273 125.349 1.43182C128.638 2.34091 131.562 3.81818 134.121 5.86364C136.68 7.86364 138.85 10.5455 140.632 13.9091C142.459 17.2273 143.853 21.2955 144.812 26.1136C145.772 30.9318 146.251 36.5909 146.251 43.0909ZM133.504 60.2727V40.9773C133.504 36.5227 133.23 32.6136 132.682 29.25C132.179 25.8409 131.425 22.9318 130.42 20.5227C129.415 18.1136 128.136 16.1591 126.582 14.6591C125.074 13.1591 123.315 12.0682 121.305 11.3864C119.34 10.6591 117.125 10.2955 114.657 10.2955C111.642 10.2955 108.969 10.8636 106.639 12C104.309 13.0909 102.344 14.8409 100.745 17.25C99.1915 19.6591 98.0036 22.8182 97.1812 26.7273C96.3588 30.6364 95.9476 35.3864 95.9476 40.9773V60.2727C95.9476 64.7273 96.1988 68.6591 96.7014 72.0682C97.2497 75.4773 98.0493 78.4318 99.1001 80.9318C100.151 83.3864 101.43 85.4091 102.938 87C104.446 88.5909 106.182 89.7727 108.147 90.5455C110.157 91.2727 112.373 91.6364 114.794 91.6364C117.901 91.6364 120.62 91.0455 122.95 89.8636C125.28 88.6818 127.222 86.8409 128.775 84.3409C130.374 81.7955 131.562 78.5455 132.339 74.5909C133.116 70.5909 133.504 65.8182 133.504 60.2727Z" fill="#ABB6C1"/>
<path d="M230 67.2273V77.5909H157.902V70.1591L202.586 1.36364H212.935L201.833 21.2727L172.294 67.2273H230ZM216.088 1.36364V100.636H203.409V1.36364H216.088Z" fill="#ABB6C1"/>
</svg>
