<svg width="150" height="213" viewBox="0 0 150 213" fill="none" xmlns="http://www.w3.org/2000/svg">
<path d="M44.9498 0.5L0 44.9703V212.5H150V0.5H44.9498ZM42.8571 12.563V42.9H12.1931L42.8571 12.563ZM142.857 205.433H7.14286V49.9667H50V7.56667H142.857V205.433Z" fill="#ABB6C1"/>
<path d="M56.5279 84.4398L46.4275 94.4359L36.3271 84.4398L31.2769 89.4361L41.3773 99.4323L31.2769 109.428L36.3271 114.425L46.4275 104.429L56.5279 114.425L61.5782 109.428L51.4777 99.4323L61.5782 89.4361L56.5279 84.4398Z" fill="#ABB6C1"/>
<path d="M89.8984 114.425L99.9988 104.429L110.099 114.425L115.149 109.428L105.049 99.4323L115.149 89.4361L110.099 84.4398L99.9988 94.4359L89.8984 84.4398L84.8481 89.4361L94.9486 99.4323L84.8481 109.428L89.8984 114.425Z" fill="#ABB6C1"/>
<path d="M43.9023 146.401L48.9526 151.397L52.2711 148.114C64.8322 135.72 85.1656 135.72 97.7266 148.114L101.045 151.397L106.095 146.401L102.777 143.118C87.4256 127.965 62.5721 127.965 47.2209 143.118L43.9023 146.401Z" fill="#ABB6C1"/>
</svg>
