<svg width="25" height="24" viewBox="0 0 25 24" fill="none" xmlns="http://www.w3.org/2000/svg">
    <path fill-rule="evenodd" clip-rule="evenodd" d="M3.33301 4.5C3.33301 3.67157 4.00458 3 4.83301 3H19.833C20.6614 3 21.333 3.67157 21.333 4.5V19.5C21.333 20.3284 20.6614 21 19.833 21H4.83301C4.00458 21 3.33301 20.3284 3.33301 19.5V4.5ZM19.833 4.5H4.83301V19.5H19.833V4.5Z" fill="#009CF0"/>
    <path fill-rule="evenodd" clip-rule="evenodd" d="M16.833 1.5C17.2472 1.5 17.583 1.83579 17.583 2.25V5.25C17.583 5.66421 17.2472 6 16.833 6C16.4188 6 16.083 5.66421 16.083 5.25V2.25C16.083 1.83579 16.4188 1.5 16.833 1.5Z" fill="#009CF0"/>
    <path fill-rule="evenodd" clip-rule="evenodd" d="M7.83301 1.5C8.24722 1.5 8.58301 1.83579 8.58301 2.25V5.25C8.58301 5.66421 8.24722 6 7.83301 6C7.41879 6 7.08301 5.66421 7.08301 5.25V2.25C7.08301 1.83579 7.41879 1.5 7.83301 1.5Z" fill="#009CF0"/>
    <path fill-rule="evenodd" clip-rule="evenodd" d="M3.33301 8.25C3.33301 7.83579 3.66879 7.5 4.08301 7.5H20.583C20.9972 7.5 21.333 7.83579 21.333 8.25C21.333 8.66421 20.9972 9 20.583 9H4.08301C3.66879 9 3.33301 8.66421 3.33301 8.25Z" fill="#009CF0"/>
</svg>
