<svg width="17" height="16" viewBox="0 0 17 16" fill="none" xmlns="http://www.w3.org/2000/svg">
<path fill-rule="evenodd" clip-rule="evenodd" d="M8.16699 2.5C5.12943 2.5 2.66699 4.96243 2.66699 8C2.66699 11.0376 5.12943 13.5 8.16699 13.5C11.2046 13.5 13.667 11.0376 13.667 8C13.667 4.96243 11.2046 2.5 8.16699 2.5ZM1.66699 8C1.66699 4.41015 4.57714 1.5 8.16699 1.5C11.7568 1.5 14.667 4.41015 14.667 8C14.667 11.5899 11.7568 14.5 8.16699 14.5C4.57714 14.5 1.66699 11.5899 1.66699 8Z" fill="#9CAAB7"/>
<path fill-rule="evenodd" clip-rule="evenodd" d="M8.16699 4C8.44313 4 8.66699 4.22386 8.66699 4.5V7.5H11.667C11.9431 7.5 12.167 7.72386 12.167 8C12.167 8.27614 11.9431 8.5 11.667 8.5H8.16699C7.89085 8.5 7.66699 8.27614 7.66699 8V4.5C7.66699 4.22386 7.89085 4 8.16699 4Z" fill="#9CAAB7"/>
</svg>
