<svg width="32" height="32" viewBox="0 0 32 32" fill="none" xmlns="http://www.w3.org/2000/svg">
<path fill-rule="evenodd" clip-rule="evenodd" d="M10 4.99927C10 4.44698 10.4477 3.99927 11 3.99927H27C27.5523 3.99927 28 4.44698 28 4.99927V20.9993C28 21.5516 27.5523 21.9993 27 21.9993H21C20.4477 21.9993 20 21.5516 20 20.9993C20 20.447 20.4477 19.9993 21 19.9993H26V5.99927H12V10.9993C12 11.5516 11.5523 11.9993 11 11.9993C10.4477 11.9993 10 11.5516 10 10.9993V4.99927Z" fill="#009CF0"/>
<path fill-rule="evenodd" clip-rule="evenodd" d="M4 10.9993C4 10.447 4.44772 9.99927 5 9.99927H21C21.5523 9.99927 22 10.447 22 10.9993V26.9993C22 27.5516 21.5523 27.9993 21 27.9993H5C4.44772 27.9993 4 27.5516 4 26.9993V10.9993ZM6 11.9993V25.9993H20V11.9993H6Z" fill="#009CF0"/>
</svg>
