<svg width="80" height="80" viewBox="0 0 80 80" fill="none" xmlns="http://www.w3.org/2000/svg">
<ellipse cx="39.5" cy="78.5" rx="31.5" ry="1.5" fill="#006499"/>
<path fill-rule="evenodd" clip-rule="evenodd" d="M53.9709 0.500582C54.2468 0.487383 54.4811 0.700284 54.4943 0.976111C54.6083 3.35856 53.0173 5.748 50.6941 7.87923C51.6566 8.2016 52.4588 8.63903 52.9902 9.22412C53.3781 9.65114 53.6234 10.1595 53.6699 10.7441C53.7159 11.3224 53.564 11.9317 53.2356 12.5634C52.5861 13.8124 51.1978 15.2414 48.9577 16.8798C46.539 18.6487 44.4061 19.9686 42.5471 20.9306C42.8132 21.2608 42.9758 21.6226 43.0368 22.0068C43.1082 22.4565 43.0349 22.9025 42.8758 23.3233C42.5626 24.1514 41.8924 24.9464 41.1419 25.6335C40.3826 26.3286 39.4984 26.9517 38.6985 27.4293C38.4614 27.5709 38.1544 27.4934 38.0129 27.2563C37.8713 27.0192 37.9488 26.7123 38.1858 26.5707C38.9412 26.1197 39.7678 25.5357 40.4666 24.8959C41.1741 24.2482 41.7093 23.5807 41.9404 22.9696C42.0535 22.6707 42.0871 22.4029 42.0492 22.1635C42.0119 21.9287 41.9006 21.6874 41.6674 21.4431C41.6514 21.4264 41.6349 21.4096 41.6178 21.3929C40.4208 21.9639 39.3487 22.3775 38.3981 22.6621C37.1015 23.0502 36.018 23.2021 35.1437 23.1786C34.2754 23.1552 33.5786 22.9572 33.0948 22.6077C32.5965 22.2478 32.3307 21.7247 32.3913 21.1512C32.4494 20.6004 32.7974 20.1042 33.3065 19.7297C34.3271 18.979 36.126 18.6007 38.5398 19.0811C39.9483 19.3614 41.002 19.7422 41.7383 20.2205C43.6183 19.2764 45.823 17.9336 48.3673 16.0726C50.5708 14.461 51.8071 13.143 52.3483 12.102C52.6152 11.5887 52.7004 11.1673 52.673 10.8234C52.6462 10.4858 52.5079 10.1804 52.25 9.89645C51.7893 9.38928 50.9589 8.96574 49.8029 8.6555C47.1893 10.8225 43.7747 12.7751 40.3609 14.2371C36.8058 15.7596 33.2042 16.7703 30.4637 16.9186C29.1005 16.9924 27.8882 16.8567 26.9968 16.4093C26.5437 16.1819 26.1634 15.8686 25.8981 15.4539C25.6318 15.0377 25.5 14.5483 25.5 14C25.5 12.8284 26.2945 11.8373 27.4109 11.0345C28.5415 10.2214 30.1066 9.52253 31.8873 8.94894C35.4538 7.80008 40.0036 7.11654 43.9918 7.07741C45.9865 7.05785 47.8589 7.19921 49.4081 7.5323C49.4543 7.54223 49.5003 7.55236 49.5461 7.56267C52.0917 5.35996 53.5938 3.08019 53.4954 1.02391C53.4822 0.748084 53.6951 0.513782 53.9709 0.500582ZM48.5433 8.38465C47.2197 8.1603 45.6674 8.06102 44.0016 8.07737C40.1024 8.11562 35.6538 8.78623 32.1939 9.90077C30.4613 10.4589 29.0061 11.119 27.9947 11.8463C26.9691 12.5839 26.5 13.3145 26.5 14C26.5 14.3835 26.5904 14.6804 26.7405 14.915C26.8915 15.1511 27.1217 15.3531 27.4454 15.5156C28.1076 15.848 29.1136 15.9902 30.4097 15.9201C32.9877 15.7806 36.468 14.8165 39.9672 13.3179C43.0501 11.9976 46.1108 10.2782 48.5433 8.38465ZM40.6265 20.7503C40.0729 20.4945 39.3285 20.2577 38.3446 20.0618C36.0925 19.6136 34.6142 20.0092 33.899 20.5352C33.5403 20.7991 33.4057 21.067 33.3857 21.2562C33.3682 21.4226 33.4287 21.6154 33.6803 21.7971C33.9463 21.9892 34.4229 22.1588 35.1706 22.179C35.9124 22.1989 36.8875 22.0704 38.1113 21.7041C38.8605 21.4798 39.6982 21.1678 40.6265 20.7503Z" fill="#009CF0"/>
<path fill-rule="evenodd" clip-rule="evenodd" d="M14.6115 9.97096L13.5006 8L12.3897 9.97096L10.1719 10.4184L11.7031 12.084L11.4433 14.3316L13.5006 13.39L15.5578 14.3316L15.2981 12.084L16.8293 10.4184L14.6115 9.97096ZM14.8924 11.0478L13.9651 10.8607L13.5006 10.0366L13.0361 10.8607L12.1088 11.0478L12.749 11.7442L12.6404 12.6839L13.5006 12.2902L14.3607 12.6839L14.2521 11.7442L14.8924 11.0478Z" fill="#009CF0"/>
<path fill-rule="evenodd" clip-rule="evenodd" d="M69.3246 7.54628L69.0965 4.21958L66.3686 6.13728L63.1343 5.32619L64.1152 8.51317L62.3443 11.3386L65.6784 11.3905L67.8183 13.9478L68.898 10.793L71.9914 9.54806L69.3246 7.54628ZM69.9722 9.28274L68.3583 8.07129L68.2202 6.058L66.5693 7.21857L64.6119 6.72771L65.2056 8.65644L64.1338 10.3664L66.1516 10.3978L67.4467 11.9455L68.1001 10.0362L69.9722 9.28274Z" fill="#009CF0"/>
<path fill-rule="evenodd" clip-rule="evenodd" d="M30 5C30.5523 5 31 4.55228 31 4C31 3.44772 30.5523 3 30 3C29.4477 3 29 3.44772 29 4C29 4.55228 29.4477 5 30 5ZM30 6C31.1046 6 32 5.10457 32 4C32 2.89543 31.1046 2 30 2C28.8954 2 28 2.89543 28 4C28 5.10457 28.8954 6 30 6Z" fill="#009CF0"/>
<path fill-rule="evenodd" clip-rule="evenodd" d="M21.5 23C21.7761 23 22 22.7761 22 22.5C22 22.2239 21.7761 22 21.5 22C21.2239 22 21 22.2239 21 22.5C21 22.7761 21.2239 23 21.5 23ZM21.5 24C22.3284 24 23 23.3284 23 22.5C23 21.6716 22.3284 21 21.5 21C20.6716 21 20 21.6716 20 22.5C20 23.3284 20.6716 24 21.5 24Z" fill="#009CF0"/>
<path d="M60 25C60 25.5523 59.5523 26 59 26C58.4477 26 58 25.5523 58 25C58 24.4477 58.4477 24 59 24C59.5523 24 60 24.4477 60 25Z" fill="#009CF0"/>
<rect x="8" y="31" width="64" height="48" rx="8" fill="#66CAFF"/>
<rect x="12" y="37" width="22" height="22" rx="4" fill="#C7EBFF"/>
<rect x="39" y="37" width="29" height="8" rx="2" fill="#C7EBFF"/>
<rect x="39" y="47" width="29" height="4" rx="1" fill="#C7EBFF"/>
<rect x="12" y="69" width="12" height="4" rx="1" fill="#C7EBFF"/>
<rect x="41" y="69" width="13" height="4" rx="1" fill="#C7EBFF"/>
<rect x="26" y="69" width="13" height="4" rx="1" fill="#C7EBFF"/>
<rect x="56" y="69" width="12" height="4" rx="1" fill="#C7EBFF"/>
<rect x="39" y="52" width="21" height="4" rx="1" fill="#C7EBFF"/>
</svg>

