<svg width="12" height="12" viewBox="0 0 12 12" fill="none" xmlns="http://www.w3.org/2000/svg">
<path d="M11.5 1V11C11.4997 11.2651 11.3942 11.5193 11.2068 11.7068C11.0193 11.8942 10.7651 11.9997 10.5 12H8.25C7.98488 11.9997 7.7307 11.8942 7.54323 11.7068C7.35576 11.5193 7.2503 11.2651 7.25 11V1C7.2503 0.734877 7.35576 0.480699 7.54323 0.293228C7.7307 0.105757 7.98488 0.000303211 8.25 0H10.5C10.7651 0.000303211 11.0193 0.105757 11.2068 0.293228C11.3942 0.480699 11.4997 0.734877 11.5 1ZM3.75 0H1.5C1.23488 0.000303211 0.980699 0.105757 0.793228 0.293228C0.605757 0.480699 0.500303 0.734877 0.5 1V11C0.500303 11.2651 0.605757 11.5193 0.793228 11.7068C0.980699 11.8942 1.23488 11.9997 1.5 12H3.75C4.01512 11.9997 4.2693 11.8942 4.45677 11.7068C4.64424 11.5193 4.7497 11.2651 4.75 11V1C4.7497 0.734877 4.64424 0.480699 4.45677 0.293228C4.2693 0.105757 4.01512 0.000303211 3.75 0Z" fill="#091941"/>
</svg>
