<svg width="11" height="14" viewBox="0 0 11 14" fill="none" xmlns="http://www.w3.org/2000/svg">
<path d="M10.5195 6.14648L1.52148 0.647457C1.36992 0.554776 1.1964 0.504151 1.01878 0.500789C0.841162 0.497428 0.665852 0.541451 0.510892 0.62833C0.355932 0.71521 0.226917 0.841807 0.137123 0.995096C0.047329 1.14839 -1.91368e-06 1.32283 0 1.50048V12.4995C0.00014455 12.6771 0.0475667 12.8515 0.137395 13.0047C0.227223 13.1579 0.356219 13.2844 0.511128 13.3712C0.666038 13.4581 0.841277 13.5021 1.01884 13.4988C1.19641 13.4956 1.3699 13.4451 1.52148 13.3525L10.5195 7.85351C10.6657 7.76413 10.7865 7.6387 10.8703 7.48925C10.954 7.3398 10.998 7.17133 10.998 7C10.998 6.82866 10.954 6.6602 10.8703 6.51075C10.7865 6.36129 10.6657 6.23587 10.5195 6.14648Z" fill="#091941"/>
</svg>
