<svg id="icon-polkadot-wallet" viewBox="0 0 40 40" fill="none" xmlns="http://www.w3.org/2000/svg">
	<path d="M20 37C29.3888 37 37 29.3888 37 20C37 10.6112 29.3888 3 20 3C10.6112 3 3 10.6112 3 20C3 29.3888 10.6112 37 20 37Z" fill="#FF8C00"/>
	<path d="M20 8.02393C15.0476 8.02393 11 12.0477 11 17.0239C11 18.0239 11.1667 19.0001 11.4762 19.9525C11.6905 20.5954 12.4048 20.9525 13.0714 20.7382C13.7143 20.5239 14.0714 19.8096 13.8571 19.143C13.5952 18.4049 13.4762 17.6192 13.5 16.8334C13.5952 13.4763 16.3095 10.7144 19.6667 10.5477C23.4048 10.3573 26.5 13.3334 26.5 17.0239C26.5 20.4763 23.7857 23.3096 20.3809 23.5001C20.3809 23.5001 19.119 23.5715 18.5 23.6668C18.1905 23.7144 17.9524 23.762 17.7857 23.7858C17.7143 23.8096 17.6429 23.7382 17.6667 23.6668L17.8809 22.6192L19.0476 17.2382C19.1905 16.5715 18.7619 15.9049 18.0952 15.762C17.4286 15.6192 16.7619 16.0477 16.619 16.7144C16.619 16.7144 13.8095 29.8096 13.7857 29.9525C13.6429 30.6192 14.0714 31.2858 14.7381 31.4287C15.4048 31.5715 16.0714 31.143 16.2143 30.4763C16.2381 30.3334 16.619 28.5954 16.619 28.5954C16.9048 27.262 18 26.2858 19.2857 26.1192C19.5714 26.0715 20.6905 26.0001 20.6905 26.0001C25.3333 25.643 29 21.762 29 17.0239C29 12.0477 24.9524 8.02393 20 8.02393ZM20.6429 28.7382C19.8333 28.5715 19.0238 29.0715 18.8571 29.9049C18.6905 30.7144 19.1905 31.5239 20.0238 31.6906C20.8333 31.8573 21.6429 31.3573 21.8095 30.5239C21.9762 29.6906 21.4762 28.9049 20.6429 28.7382Z" fill="white"/>
</svg>