<svg width="24" height="24" viewBox="0 0 24 24" fill="none" xmlns="http://www.w3.org/2000/svg">
<path d="M12 2.24994C10.0716 2.24994 8.18657 2.82177 6.58319 3.89311C4.97982 4.96445 3.73013 6.4872 2.99218 8.26878C2.25422 10.0504 2.06114 12.0108 2.43735 13.9021C2.81355 15.7934 3.74215 17.5307 5.10571 18.8942C6.46928 20.2578 8.20656 21.1864 10.0979 21.5626C11.9892 21.9388 13.9496 21.7457 15.7312 21.0078C17.5127 20.2698 19.0355 19.0201 20.1068 17.4167C21.1782 15.8134 21.75 13.9283 21.75 11.9999C21.7471 9.41498 20.7189 6.93673 18.8911 5.10888C17.0632 3.28103 14.585 2.25286 12 2.24994ZM12.0001 18C11.7776 18 11.56 17.934 11.375 17.8104C11.19 17.6868 11.0458 17.5111 10.9607 17.3055C10.8755 17.0999 10.8533 16.8737 10.8967 16.6555C10.9401 16.4373 11.0472 16.2368 11.2046 16.0795C11.3619 15.9221 11.5624 15.815 11.7806 15.7716C11.9988 15.7282 12.225 15.7505 12.4306 15.8356C12.6361 15.9208 12.8118 16.065 12.9355 16.25C13.0591 16.435 13.1251 16.6525 13.1251 16.875C13.1251 17.1733 13.0065 17.4595 12.7955 17.6705C12.5846 17.8814 12.2984 18 12.0001 18ZM12.75 13.4164V13.5004C12.75 13.6993 12.671 13.8901 12.5303 14.0307C12.3897 14.1714 12.1989 14.2504 12 14.2504C11.8011 14.2504 11.6103 14.1714 11.4697 14.0307C11.329 13.8901 11.25 13.6993 11.25 13.5004V12.7504C11.25 12.5515 11.329 12.3607 11.4697 12.2201C11.6103 12.0794 11.8011 12.0004 12 12.0004C12.3708 12.0004 12.7334 11.8904 13.0417 11.6844C13.35 11.4784 13.5904 11.1855 13.7323 10.8429C13.8742 10.5003 13.9113 10.1233 13.839 9.7596C13.7666 9.39589 13.5881 9.06179 13.3258 8.79957C13.0636 8.53735 12.7295 8.35877 12.3658 8.28642C12.0021 8.21408 11.6251 8.25121 11.2825 8.39312C10.9399 8.53504 10.647 8.77536 10.441 9.0837C10.235 9.39204 10.125 9.75456 10.125 10.1254C10.125 10.3243 10.046 10.5151 9.90534 10.6557C9.76469 10.7964 9.57392 10.8754 9.37501 10.8754C9.1761 10.8754 8.98533 10.7964 8.84468 10.6557C8.70403 10.5151 8.62501 10.3243 8.62501 10.1254C8.62509 9.49008 8.80449 8.86768 9.14259 8.32979C9.48068 7.7919 9.96373 7.36036 10.5362 7.08481C11.1086 6.80925 11.7472 6.70087 12.3785 6.77213C13.0099 6.84338 13.6082 7.09138 14.1049 7.48761C14.6015 7.88383 14.9762 8.41218 15.1859 9.0119C15.3956 9.61162 15.4317 10.2583 15.2902 10.8777C15.1487 11.4971 14.8352 12.0639 14.3858 12.513C13.9364 12.9621 13.3694 13.2753 12.75 13.4164Z" fill="#009CF0"/>
</svg>
