<svg width="24" height="24" viewBox="0 0 24 24" fill="none" xmlns="http://www.w3.org/2000/svg">
<path fill-rule="evenodd" clip-rule="evenodd" d="M12 3.75C7.44365 3.75 3.75 7.44365 3.75 12C3.75 16.5563 7.44365 20.25 12 20.25C16.5563 20.25 20.25 16.5563 20.25 12C20.25 7.44365 16.5563 3.75 12 3.75ZM2.25 12C2.25 6.61522 6.61522 2.25 12 2.25C17.3848 2.25 21.75 6.61522 21.75 12C21.75 17.3848 17.3848 21.75 12 21.75C6.61522 21.75 2.25 17.3848 2.25 12Z" fill="#009CF0"/>
<path d="M12 18C12.6213 18 13.125 17.4963 13.125 16.875C13.125 16.2537 12.6213 15.75 12 15.75C11.3787 15.75 10.875 16.2537 10.875 16.875C10.875 17.4963 11.3787 18 12 18Z" fill="#009CF0"/>
<path fill-rule="evenodd" clip-rule="evenodd" d="M10.7084 7.00734C11.3251 6.75189 12.0037 6.68505 12.6584 6.81528C13.3131 6.9455 13.9145 7.26694 14.3865 7.73894C14.8585 8.21095 15.1799 8.81231 15.3102 9.467C15.4404 10.1217 15.3735 10.8003 15.1181 11.417C14.8626 12.0337 14.4301 12.5608 13.875 12.9316C13.531 13.1616 13.1494 13.325 12.75 13.416V13.5004C12.75 13.9146 12.4142 14.2504 12 14.2504C11.5858 14.2504 11.25 13.9146 11.25 13.5004V12.7504C11.25 12.5515 11.329 12.3608 11.4697 12.2201C11.6103 12.0794 11.8011 12.0004 12 12.0004C12.3708 12.0004 12.7334 11.8905 13.0417 11.6844C13.35 11.4784 13.5904 11.1856 13.7323 10.843C13.8742 10.5003 13.9113 10.1233 13.839 9.75963C13.7666 9.39592 13.588 9.06183 13.3258 8.7996C13.0636 8.53738 12.7295 8.3588 12.3658 8.28646C12.0021 8.21411 11.6251 8.25124 11.2825 8.39315C10.9399 8.53507 10.647 8.77539 10.441 9.08373C10.235 9.39208 10.125 9.75459 10.125 10.1254C10.125 10.5396 9.78921 10.8754 9.375 10.8754C8.96079 10.8754 8.625 10.5396 8.625 10.1254C8.625 9.45792 8.82294 8.80539 9.19379 8.25038C9.56464 7.69536 10.0917 7.26278 10.7084 7.00734Z" fill="#009CF0"/>
</svg>
