<svg width="32" height="32" viewBox="0 0 32 32" fill="none" xmlns="http://www.w3.org/2000/svg">
  <path fill-rule="evenodd" clip-rule="evenodd" d="M5.58481 3.58579C5.95988 3.21071 6.46859 3 6.99902 3H19C19.2652 3 19.5196 3.10536 19.7071 3.29289L26.7071 10.2929C26.8946 10.4804 27 10.7348 27 11V27C27 27.2626 26.9483 27.5227 26.8478 27.7654C26.7473 28.008 26.5999 28.2285 26.4142 28.4142C26.2285 28.5999 26.008 28.7473 25.7654 28.8478C25.5227 28.9483 25.2626 29 25 29H6.99902C6.46859 29 5.95988 28.7893 5.58481 28.4142C5.20974 28.0391 4.99902 27.5304 4.99902 27V5C4.99902 4.46957 5.20974 3.96086 5.58481 3.58579ZM18.5858 5L6.99902 5L6.99902 27L25 27V11.4142L18.5858 5Z" fill="#009CF0"/>
  <path fill-rule="evenodd" clip-rule="evenodd" d="M19 3C19.5523 3 20 3.44772 20 4V10H26.001C26.5533 10 27.001 10.4477 27.001 11C27.001 11.5523 26.5533 12 26.001 12H19C18.4477 12 18 11.5523 18 11V4C18 3.44772 18.4477 3 19 3Z" fill="#009CF0"/>
  <path fill-rule="evenodd" clip-rule="evenodd" d="M15.2929 14.2929C15.6834 13.9024 16.3166 13.9024 16.7071 14.2929L20.2071 17.7929C20.5976 18.1834 20.5976 18.8166 20.2071 19.2071C19.8166 19.5976 19.1834 19.5976 18.7929 19.2071L16 16.4142L13.2071 19.2071C12.8166 19.5976 12.1834 19.5976 11.7929 19.2071C11.4024 18.8166 11.4024 18.1834 11.7929 17.7929L15.2929 14.2929Z" fill="#009CF0"/>
  <path fill-rule="evenodd" clip-rule="evenodd" d="M16 14C16.5523 14 17 14.4477 17 15V23C17 23.5523 16.5523 24 16 24C15.4477 24 15 23.5523 15 23V15C15 14.4477 15.4477 14 16 14Z" fill="#009CF0"/>
</svg>
