<svg width="32" height="32" viewBox="0 0 32 32" fill="none" xmlns="http://www.w3.org/2000/svg">
    <path fill-rule="evenodd" clip-rule="evenodd" d="M16 12C16.5523 12 17 12.4477 17 13V18C17 18.5523 16.5523 19 16 19C15.4477 19 15 18.5523 15 18V13C15 12.4477 15.4477 12 16 12Z" fill="white"/>
    <path fill-rule="evenodd" clip-rule="evenodd" d="M14.5024 3.4011C14.9581 3.13832 15.4749 3 16.0009 3C16.527 3 17.0438 3.13832 17.4995 3.4011C17.9552 3.66387 18.3338 4.04185 18.5974 4.49713L17.7393 4.99377L18.5974 4.49714L29.5944 23.4962C29.8583 23.9522 29.9975 24.4697 29.998 24.9966C29.9984 25.5234 29.8601 26.0412 29.5969 26.4976C29.3337 26.9541 28.9549 27.3331 28.4987 27.5967C28.0425 27.8603 27.5249 27.999 26.998 27.999H5.00391C4.47702 27.999 3.95942 27.8603 3.50319 27.5967C3.04696 27.3331 2.6682 26.9541 2.405 26.4976C2.14181 26.0412 2.00347 25.5234 2.00391 24.9966C2.00434 24.4697 2.14354 23.9522 2.40749 23.4962L13.4045 4.49714L14.2845 5.00651L13.4045 4.49713C13.668 4.04185 14.0467 3.66387 14.5024 3.4011ZM16.0009 5C15.8256 5 15.6533 5.04611 15.5014 5.1337C15.3495 5.22129 15.2233 5.34728 15.1355 5.49904L4.13843 24.4981L3.27296 23.9971L4.13843 24.4981C4.05045 24.6501 4.00405 24.8226 4.00391 24.9982C4.00376 25.1738 4.04987 25.3464 4.13761 25.4986C4.22534 25.6507 4.35159 25.7771 4.50367 25.8649C4.65575 25.9528 4.82828 25.999 5.00391 25.999H26.998C27.1736 25.999 27.3461 25.9528 27.4982 25.8649C27.6503 25.7771 27.7766 25.6507 27.8643 25.4986C27.952 25.3464 27.9981 25.1738 27.998 24.9982C27.9978 24.8226 27.9514 24.6501 27.8635 24.4981L28.7289 23.9971L27.8634 24.4981L16.8664 5.49904C16.7786 5.34728 16.6524 5.22129 16.5005 5.1337C16.3486 5.04611 16.1763 5 16.0009 5Z" fill="white"/>
    <path d="M16 24C16.8284 24 17.5 23.3284 17.5 22.5C17.5 21.6716 16.8284 21 16 21C15.1716 21 14.5 21.6716 14.5 22.5C14.5 23.3284 15.1716 24 16 24Z" fill="white"/>
</svg>
