<svg width="32" height="30" viewBox="0 0 32 30" fill="none" xmlns="http://www.w3.org/2000/svg">
<rect width="32" height="30" rx="4" fill="#E9FCE6"/>
<path fill-rule="evenodd" clip-rule="evenodd" d="M15.4927 9.16743C15.6464 9.07699 15.8215 9.0293 15.9998 9.0293C16.1782 9.0293 16.3533 9.07699 16.507 9.16743C16.6607 9.25787 16.7874 9.38776 16.874 9.54365L18.7148 12.8571L21.8762 11.4519C22.0464 11.3763 22.2343 11.3497 22.4188 11.3751C22.6032 11.4005 22.777 11.4769 22.9203 11.5957C23.0637 11.7145 23.1711 11.8709 23.2304 12.0475C23.2896 12.224 23.2985 12.4136 23.2558 12.5948L21.6625 19.3657C21.6313 19.497 21.5739 19.6206 21.4937 19.7291C21.4135 19.8376 21.3122 19.9288 21.1959 19.9972C21.0795 20.0655 20.9505 20.1097 20.8167 20.1269C20.6835 20.1441 20.5481 20.1342 20.4187 20.098C17.5258 19.3 14.4707 19.3003 11.5779 20.0988C11.4485 20.1351 11.3131 20.145 11.1798 20.1278C11.0459 20.1106 10.9169 20.0664 10.8005 19.998C10.6841 19.9296 10.5828 19.8384 10.5026 19.7298C10.4224 19.6212 10.365 19.4975 10.3339 19.3662L10.3336 19.3651L8.74329 12.5942C8.70072 12.413 8.70959 12.2234 8.7689 12.047C8.82821 11.8705 8.93561 11.7141 9.079 11.5953C9.22239 11.4766 9.39608 11.4002 9.58052 11.3749C9.76495 11.3495 9.95281 11.3761 10.1229 11.4517L13.2849 12.8571L15.1257 9.54365C15.2123 9.38776 15.339 9.25786 15.4927 9.16743ZM17.8406 13.3427L15.9998 10.0293L14.1591 13.3427C14.0377 13.5611 13.839 13.7262 13.6021 13.8054C13.3651 13.8847 13.1071 13.8723 12.8788 13.7709L9.7168 12.3655L11.3069 19.1354L11.3072 19.1359L11.3079 19.136L11.3106 19.1352C14.3783 18.2882 17.618 18.2879 20.6858 19.1343L20.6886 19.1351L20.6892 19.135L20.6896 19.1345L22.2824 12.3658L19.1209 13.7709C18.8926 13.8723 18.6346 13.8847 18.3976 13.8054C18.1606 13.7262 17.9619 13.5611 17.8406 13.3427Z" fill="#2DBF15"/>
</svg>
